<svg width="16" height="16" viewBox="0 0 16 16" xmlns="http://www.w3.org/2000/svg">
<g>
<path d="M15.9688 9.90625C15.9688 8.09697 14.4968 6.625 12.6875 6.625C11.7225 6.625 10.8536 7.04378 10.2526 7.70909C9.90272 7.53019 9.53966 7.38134 9.1675 7.26366C10.2681 6.56469 11 5.33503 11 3.9375C11 1.76634 9.23366 0 7.0625 0C4.89134 0 3.125 1.76634 3.125 3.9375C3.125 5.332 3.85372 6.55941 4.95031 7.25916C3.88272 7.59387 2.90444 8.18312 2.09066 8.99687C0.762625 10.3249 0.03125 12.0906 0.03125 13.9687V15.5312C0.03125 15.7901 0.241125 16 0.5 16H13.625C13.8839 16 14.0938 15.7901 14.0938 15.5312V13.9687C14.0938 13.6164 14.0661 13.2611 14.0121 12.9079C15.1634 12.3979 15.9688 11.2444 15.9688 9.90625ZM4.0625 3.9375C4.0625 2.28328 5.40828 0.9375 7.0625 0.9375C8.71672 0.9375 10.0625 2.28328 10.0625 3.9375C10.0625 5.59172 8.71672 6.9375 7.0625 6.9375C5.40828 6.9375 4.0625 5.59172 4.0625 3.9375ZM13.1562 13.9687V15.0625H0.96875V13.9687C0.96875 10.6087 3.70241 7.875 7.0625 7.875C7.98344 7.875 8.89516 8.08844 9.72591 8.49434C9.52109 8.92225 9.40625 9.40106 9.40625 9.90625C9.40625 11.7155 10.8782 13.1875 12.6875 13.1875C12.8278 13.1875 12.966 13.1786 13.1016 13.1615C13.1378 13.4307 13.1562 13.7008 13.1562 13.9687ZM13.3656 12.1496C13.354 12.1525 13.3424 12.1556 13.3312 12.1594C13.1265 12.218 12.9107 12.25 12.6875 12.25C11.3952 12.25 10.3438 11.1986 10.3438 9.90625C10.3438 8.61391 11.3952 7.5625 12.6875 7.5625C13.9798 7.5625 15.0312 8.61391 15.0312 9.90625C15.0312 10.9628 14.3283 11.858 13.3656 12.1496Z" />
<path d="M13.625 9.4375H13.1562V8.96875C13.1562 8.70987 12.9464 8.5 12.6875 8.5C12.4286 8.5 12.2188 8.70987 12.2188 8.96875V9.4375H11.75C11.4911 9.4375 11.2812 9.64737 11.2812 9.90625C11.2812 10.1651 11.4911 10.375 11.75 10.375H12.2188V10.8438C12.2188 11.1026 12.4286 11.3125 12.6875 11.3125C12.9464 11.3125 13.1562 11.1026 13.1562 10.8438V10.375H13.625C13.8839 10.375 14.0938 10.1651 14.0938 9.90625C14.0938 9.64737 13.8839 9.4375 13.625 9.4375Z"/>
</g>
</svg>
