<svg width="112" height="112" viewBox="0 0 112 112" fill="none" xmlns="http://www.w3.org/2000/svg">
<path d="M112 0H0V112H112V0Z" fill="white"/>
<path d="M67.2 51.4262C61.3333 57.5246 50.6667 57.5246 44.8 51.4262C38.4 45.3279 38.4 35.6721 44.8 29.5738C50.6667 23.4754 61.3333 23.4754 67.2 29.5738C73.6 35.6721 73.6 45.3279 67.2 51.4262Z" fill="#C5C5C5"/>
<path d="M81 82.1739C81 84.087 79.3696 86 76.6522 86H35.3478C33.1739 86 31 84.5652 31 82.1739C31 72.1304 40.2391 64 51.6522 64H59.8043C71.7609 64 81 72.1304 81 82.1739Z" fill="#C5C5C5"/>
<rect x="0.5" y="0.5" width="111" height="111" stroke="#E5E5E5"/>
</svg>
