<svg width="14" height="14" viewBox="0 0 14 14" fill="none" xmlns="http://www.w3.org/2000/svg">
<path d="M13.5898 13.1795H13.1797V2.05062C13.1797 1.85517 13.0415 1.68693 12.85 1.64848L4.61956 0.00785537C4.49939 -0.0153868 4.37404 0.0150741 4.27911 0.0927577C4.18417 0.170879 4.12891 0.287035 4.12891 0.41V5.76937H5.35938C6.03788 5.76937 6.58984 6.32134 6.58984 6.99984V13.9998H9.05078V12.2904C8.11587 12.0998 7.41016 11.2714 7.41016 10.2811C7.41016 9.29535 8.20884 7.41 9.46094 7.41C10.713 7.41 11.5117 9.29535 11.5117 10.2811C11.5117 11.2714 10.806 12.0998 9.87109 12.2904V13.9998H13.5898C13.8166 13.9998 14 13.8164 14 13.5897C14 13.363 13.8166 13.1795 13.5898 13.1795ZM7.82031 4.94906H6.17969C5.95298 4.94906 5.76953 4.76561 5.76953 4.53891C5.76953 4.3122 5.95298 4.12875 6.17969 4.12875H7.82031C8.04702 4.12875 8.23047 4.3122 8.23047 4.53891C8.23047 4.76561 8.04702 4.94906 7.82031 4.94906ZM7.82031 3.30844H6.17969C5.95298 3.30844 5.76953 3.12499 5.76953 2.89828C5.76953 2.67157 5.95298 2.48812 6.17969 2.48812H7.82031C8.04702 2.48812 8.23047 2.67157 8.23047 2.89828C8.23047 3.12499 8.04702 3.30844 7.82031 3.30844ZM11.1016 6.58969H9.46094C9.23423 6.58969 9.05078 6.40624 9.05078 6.17953C9.05078 5.95282 9.23423 5.76937 9.46094 5.76937H11.1016C11.3283 5.76937 11.5117 5.95282 11.5117 6.17953C11.5117 6.40624 11.3283 6.58969 11.1016 6.58969ZM11.1016 4.94906H9.46094C9.23423 4.94906 9.05078 4.76561 9.05078 4.53891C9.05078 4.3122 9.23423 4.12875 9.46094 4.12875H11.1016C11.3283 4.12875 11.5117 4.3122 11.5117 4.53891C11.5117 4.76561 11.3283 4.94906 11.1016 4.94906Z" fill="#383838"/>
<path d="M10.6914 10.2811C10.6914 9.47117 10.0313 8.23029 9.46094 8.23029C8.89057 8.23029 8.23047 9.47117 8.23047 10.2811C8.23047 10.9596 8.78243 11.5115 9.46094 11.5115C10.1394 11.5115 10.6914 10.9596 10.6914 10.2811Z" fill="#383838"/>
<path d="M5.35938 6.58966H2.46094V3.71857C2.46094 3.49186 2.27749 3.30841 2.05078 3.30841C1.82407 3.30841 1.64062 3.49186 1.64062 3.71857V6.58966H1.23047C1.00395 6.58966 0.820312 6.77325 0.820312 6.99982V13.1795H0.410156C0.183641 13.1795 0 13.3631 0 13.5897C0 13.8162 0.183641 13.9998 0.410156 13.9998H5.76953V6.99982C5.76953 6.77325 5.58589 6.58966 5.35938 6.58966ZM4.12891 12.3318H2.46094C2.23423 12.3318 2.05078 12.1484 2.05078 11.9217C2.05078 11.695 2.23423 11.5115 2.46094 11.5115H4.12891C4.35561 11.5115 4.53906 11.695 4.53906 11.9217C4.53906 12.1484 4.35561 12.3318 4.12891 12.3318ZM4.12891 10.6912H2.46094C2.23423 10.6912 2.05078 10.5078 2.05078 10.2811C2.05078 10.0544 2.23423 9.87091 2.46094 9.87091H4.12891C4.35561 9.87091 4.53906 10.0544 4.53906 10.2811C4.53906 10.5078 4.35561 10.6912 4.12891 10.6912ZM4.12891 9.0506H2.46094C2.23423 9.0506 2.05078 8.86715 2.05078 8.64044C2.05078 8.41374 2.23423 8.23029 2.46094 8.23029H4.12891C4.35561 8.23029 4.53906 8.41374 4.53906 8.64044C4.53906 8.86715 4.35561 9.0506 4.12891 9.0506Z" fill="#383838"/>
</svg>
