<svg width="16" height="16" viewBox="0 0 16 16" fill="none" xmlns="http://www.w3.org/2000/svg">
<g>
<path d="M14.496 3.57629L14.1427 2.51733C14.0082 2.11401 13.6321 1.84302 13.2071 1.84302H10.238V0.876343C10.238 0.393188 9.84514 0 9.36211 0H6.64311C6.1602 0 5.76726 0.393188 5.76726 0.876343V1.84302H2.79827C2.37309 1.84302 1.997 2.11401 1.86247 2.51733L1.5092 3.57629C1.42876 3.81738 1.46953 4.08435 1.61809 4.29053C1.76665 4.4967 2.00701 4.61987 2.26116 4.61987H2.63042L3.44316 14.67C3.50359 15.4158 4.1364 16 4.88408 16H11.2861C12.0336 16 12.6666 15.4158 12.7269 14.6699L13.5396 4.61987H13.7441C13.9982 4.61987 14.2386 4.4967 14.3871 4.29065C14.5357 4.08447 14.5765 3.81738 14.496 3.57629ZM6.70476 0.9375H9.30046V1.84302H6.70476V0.9375ZM11.7924 14.5944C11.7712 14.8569 11.5488 15.0625 11.2861 15.0625H4.88408C4.62139 15.0625 4.39897 14.8569 4.37773 14.5944L3.57097 4.61987H12.599L11.7924 14.5944ZM2.46221 3.68237L2.75188 2.81396C2.75847 2.79395 2.77715 2.78052 2.79827 2.78052H13.2071C13.2282 2.78052 13.2468 2.79395 13.2535 2.81396L13.5431 3.68237H2.46221Z"/>
<path d="M10.2973 14.5612C10.3056 14.5617 10.3138 14.5618 10.3221 14.5618C10.5697 14.5618 10.7768 14.3677 10.7897 14.1175L11.2299 5.66755C11.2433 5.409 11.0446 5.18842 10.7862 5.17499C10.527 5.1612 10.3072 5.36017 10.2936 5.61872L9.85355 14.0687C9.84012 14.3272 10.0387 14.5478 10.2973 14.5612Z"/>
<path d="M5.23651 14.1185C5.25018 14.3684 5.45697 14.5617 5.70416 14.5617C5.71271 14.5617 5.72149 14.5615 5.73016 14.561C5.98858 14.547 6.1867 14.326 6.17267 14.0675L5.71161 5.61754C5.69757 5.35899 5.47662 5.16087 5.21808 5.17503C4.95966 5.18907 4.76154 5.41002 4.77557 5.66856L5.23651 14.1185Z"/>
<path d="M8.00787 14.5618C8.26678 14.5618 8.47662 14.3519 8.47662 14.093V5.64307C8.47662 5.38416 8.26678 5.17432 8.00787 5.17432C7.74896 5.17432 7.53912 5.38416 7.53912 5.64307V14.093C7.53912 14.3519 7.74896 14.5618 8.00787 14.5618Z"/>
</g>
</svg>
