<svg width="16" height="16" viewBox="0 0 16 16" fill="none" xmlns="http://www.w3.org/2000/svg">
<g clip-path="url(#clip0)">
<path d="M14.2204 4.52149L11.3285 0.472874C11.117 0.17675 10.7736 0 10.4097 0C10.3622 0 10.3236 0.0385624 10.3236 0.0861248V4.47312C10.3236 4.69818 10.506 4.88062 10.7311 4.88062H14.0356C14.2203 4.88062 14.3278 4.67183 14.2204 4.52149Z" fill="#00B14F"/>
<path d="M13.8942 6.15383H9.85119C9.40891 6.15383 9.05045 5.7953 9.05045 5.35308V4.88062V0.800748C9.05038 0.358531 8.69185 0 8.24963 0H2.43624C1.81149 0 1.30505 0.506437 1.30505 1.13122V14.8688C1.30505 15.4935 1.81149 16 2.43624 16H13.5638C14.1885 16 14.6949 15.4936 14.6949 14.8689V6.95458C14.6949 6.51236 14.3364 6.15383 13.8942 6.15383ZM4.38199 2.50396H6.39917C6.74307 2.50396 7.03992 2.76818 7.05507 3.11174C7.07117 3.47643 6.78023 3.77715 6.41911 3.77715H4.40192C4.05802 3.77715 3.76117 3.51293 3.74602 3.16937C3.72992 2.80471 4.02083 2.50396 4.38199 2.50396ZM11.5968 13.0716H4.40195C4.05805 13.0716 3.76114 12.8074 3.74599 12.4638C3.72989 12.0991 4.02083 11.7984 4.38195 11.7984H11.5768C11.9208 11.7984 12.2176 12.0627 12.2328 12.4062C12.2489 12.7709 11.9579 13.0716 11.5968 13.0716ZM11.5968 10.9071H4.40195C4.05805 10.9071 3.76114 10.6429 3.74599 10.2994C3.72989 9.93467 4.02083 9.63392 4.38195 9.63392H11.5768C11.9208 9.63392 12.2176 9.89817 12.2328 10.2417C12.2489 10.6064 11.9579 10.9071 11.5968 10.9071ZM11.5968 8.82758H4.40195C4.05805 8.82758 3.76114 8.56336 3.74599 8.2198C3.72989 7.85511 4.02083 7.55436 4.38195 7.55436H11.5768C11.9208 7.55436 12.2176 7.81858 12.2328 8.16214C12.2489 8.52683 11.9579 8.82758 11.5968 8.82758Z" fill="#00B14F"/>
</g>
<defs>
<clipPath id="clip0">
<rect width="16" height="16" fill="white"/>
</clipPath>
</defs>
</svg>
