<svg width="16" height="16" viewBox="0 0 16 16" fill="none" xmlns="http://www.w3.org/2000/svg">
<g clip-path="url(#clip0)">
<path d="M14.6354 9.85539C14.3322 9.85539 14.0888 10.1028 14.0888 10.402V13.8694C14.0888 14.428 13.6339 14.8828 13.0713 14.8868H2.11072C1.55212 14.8868 1.09726 14.4319 1.09327 13.8694V3.6908C1.09327 3.1322 1.54813 2.67734 2.11072 2.67335H5.58204C5.88529 2.67335 6.12868 2.42596 6.12868 2.12671C6.12868 1.82746 5.8813 1.58008 5.58204 1.58008H2.11072C0.945636 1.58008 0 2.52571 0 3.6908V13.8733C0 15.0344 0.949626 15.9841 2.11072 15.9841H13.0753C14.2364 15.9841 15.186 15.0344 15.186 13.8733V10.402C15.182 10.0988 14.9387 9.85539 14.6354 9.85539Z" fill="#A4A4A4"/>
<path d="M15.4414 1.07723L14.9826 0.61838C14.6195 0.255287 14.1407 0.0557861 13.6299 0.0557861C13.1192 0.0557861 12.6364 0.255287 12.2773 0.61838L5.30277 7.58895C5.23494 7.65678 5.18706 7.74057 5.16312 7.82836L4.24542 11.1361C4.19355 11.3236 4.24542 11.5311 4.38507 11.6707C4.48881 11.7745 4.62846 11.8303 4.7721 11.8303C4.81998 11.8303 4.86786 11.8224 4.91574 11.8104L8.22346 10.8927C8.31524 10.8688 8.39903 10.8169 8.46287 10.753L15.4414 3.78646C16.1875 3.04032 16.1875 1.82337 15.4414 1.07723ZM7.06636 10.0827L5.55813 10.5017L5.97708 8.99344L7.06636 10.0827ZM13.59 4.0897L8.10376 9.572L6.48382 7.95205L11.9701 2.46975L13.59 4.0897ZM14.6673 3.01239L14.3641 3.31564L12.7442 1.69569L13.0474 1.39244C13.3666 1.07324 13.8893 1.07324 14.2085 1.39244L14.6673 1.8513C14.9865 2.1705 14.9865 2.69319 14.6673 3.01239Z" fill="#A4A4A4"/>
</g>
<defs>
<clipPath id="clip0">
<rect width="16" height="16" fill="white"/>
</clipPath>
</defs>
</svg>
