<svg width="90" height="90" viewBox="0 0 90 90" fill="none" xmlns="http://www.w3.org/2000/svg">
<circle cx="45" cy="45" r="43.8" stroke="#3E5C9A" stroke-width="2.4"/>
<path d="M68.916 20H21.084C20.4883 20 20 20.4883 20 21.084V68.9062C20 69.5117 20.4883 70 21.084 70H29.7754C30.3711 70 30.8594 69.5117 30.8594 68.916V67.832H59.1211V68.916C59.1211 69.5117 59.6094 70 60.2051 70H68.8965C69.4922 70 69.9805 69.5117 69.9805 68.916V21.084C70 20.4883 69.5117 20 68.916 20ZM59.1309 33.0469V65.6543H46.084V33.0469H59.1309ZM43.916 65.6543H30.8691V33.0469H43.916V65.6543ZM67.8223 67.8223H61.3086V66.7383V31.9531C61.3086 31.3574 60.8203 30.8691 60.2246 30.8691H29.7852C29.1895 30.8691 28.7012 31.3574 28.7012 31.9531V66.7383V67.8223H22.1777V22.1777H67.832V67.8223H67.8223Z" fill="#3E5C9A"/>
<path d="M64.5605 43.9062C65.1592 43.9062 65.6445 43.4209 65.6445 42.8223C65.6445 42.2236 65.1592 41.7383 64.5605 41.7383C63.9619 41.7383 63.4766 42.2236 63.4766 42.8223C63.4766 43.4209 63.9619 43.9062 64.5605 43.9062Z" fill="#3E5C9A"/>
<path d="M64.5605 48.2617C65.1592 48.2617 65.6445 47.7764 65.6445 47.1777C65.6445 46.5791 65.1592 46.0938 64.5605 46.0938C63.9619 46.0938 63.4766 46.5791 63.4766 47.1777C63.4766 47.7764 63.9619 48.2617 64.5605 48.2617Z" fill="#3E5C9A"/>
<path d="M41.4258 26.8452L39.248 24.6675C38.8281 24.2476 38.1348 24.2476 37.7148 24.6675L35.5371 26.8452C35.1172 27.2651 35.1172 27.9585 35.5371 28.3784C35.957 28.7983 36.6504 28.7983 37.0703 28.3784L38.4766 26.9722L39.8828 28.3784C40.0977 28.5933 40.3711 28.7007 40.6543 28.7007C40.9277 28.7007 41.2109 28.5933 41.4258 28.3784C41.8457 27.9585 41.8457 27.2651 41.4258 26.8452Z" fill="#3E5C9A"/>
<path d="M54.4629 24.6675C54.043 24.2476 53.3496 24.2476 52.9297 24.6675L51.5234 26.0737L50.1172 24.6675C49.6973 24.2476 49.0039 24.2476 48.584 24.6675C48.1641 25.0874 48.1641 25.7808 48.584 26.2007L50.7617 28.3784C50.9766 28.5933 51.25 28.7007 51.5332 28.7007C51.8164 28.7007 52.0898 28.5933 52.3047 28.3784L54.4824 26.2007C54.8828 25.7808 54.8828 25.0874 54.4629 24.6675Z" fill="#3E5C9A"/>
</svg>
