<svg width="16" height="16" viewBox="0 0 16 16" fill="none" xmlns="http://www.w3.org/2000/svg">
<path d="M15.1111 0H8.00003C7.51114 0 7.11115 0.4 7.11115 0.888889V2.32C7.11115 2.32 7.11115 2.32 7.12003 2.32889L11.5645 6.32889C12.1245 6.82667 12.4445 7.55556 12.4445 8.31111V8.88889H14.2223V10.6667H12.4445V12.4444H14.2223V14.2222H12.4445V16H15.1111C15.6 16 16 15.6 16 15.1111V0.888889C16 0.4 15.6 0 15.1111 0ZM10.6667 3.55556H8.88892V1.77778H10.6667V3.55556ZM14.2223 7.11111H12.4445V5.33333H14.2223V7.11111ZM14.2223 3.55556H12.4445V1.77778H14.2223V3.55556Z" fill="#00B14F"/>
<path d="M10.6667 15.1111V8.3111C10.6667 8.06221 10.56 7.82221 10.3733 7.65332L5.92889 3.65332C5.76 3.49332 5.54667 3.42221 5.33333 3.42221C5.12 3.42221 4.90667 3.50221 4.73778 3.65332L0.293333 7.65332C0.106667 7.81332 0 8.05332 0 8.3111V15.1111C0 15.6 0.4 16 0.888889 16H2.66667C3.15556 16 3.55556 15.6 3.55556 15.1111V11.5555H7.11111V15.1111C7.11111 15.6 7.51111 16 8 16H9.77778C10.2667 16 10.6667 15.6 10.6667 15.1111Z" fill="#00B14F"/>
</svg>
