<svg width="24" height="24" viewBox="0 0 24 24" fill="none" xmlns="http://www.w3.org/2000/svg">
<path d="M11.9999 5.42188C8.57637 5.42188 5.79102 8.20724 5.79102 11.6308C5.79102 13.0319 6.25044 14.3558 7.11898 15.4586C7.29043 15.6769 7.47057 15.8859 7.6613 16.1071L7.67178 16.1193C8.25528 16.7962 8.85858 17.4965 9.08389 18.321C9.13482 18.51 9.14205 18.8722 9.13912 19.1513V19.6256C9.13912 20.0597 9.49102 20.4116 9.92509 20.4116H14.0406C14.4747 20.4116 14.8266 20.0597 14.8266 19.6256V19.1457C14.824 18.7813 14.8428 18.5153 14.8809 18.3773C15.1074 17.5582 15.776 16.7717 16.3713 16.0717L16.3969 16.0415C16.5687 15.8397 16.731 15.649 16.8788 15.4611C17.7486 14.3576 18.2083 13.0331 18.2083 11.6308C18.2082 8.20724 15.4232 5.42188 11.9999 5.42188ZM15.6436 14.4889C15.5141 14.6535 15.3616 14.8328 15.2 15.0226L15.1683 15.0598C14.473 15.8776 13.6849 16.8045 13.3655 17.9591C13.3203 18.123 13.2702 18.3683 13.2574 18.8396H10.7096C10.6987 18.339 10.6476 18.0823 10.601 17.9094C10.2814 16.7394 9.49469 15.8266 8.86246 15.0929L8.85188 15.0805C8.6732 14.8733 8.50448 14.6776 8.35452 14.4869C7.70584 13.6632 7.36295 12.6755 7.36295 11.6308C7.36295 9.074 9.44313 6.9938 11.9999 6.9938C14.5564 6.9938 16.6363 9.074 16.6363 11.6308C16.6363 12.6766 16.2932 13.6646 15.6436 14.4889Z" fill="#FFA800"/>
<path d="M14.04 20.6357H9.92464C9.49057 20.6357 9.13867 20.9876 9.13867 21.4216C9.13867 21.8557 9.49057 22.2076 9.92464 22.2076H14.0402C14.4742 22.2076 14.8261 21.8557 14.8261 21.4216C14.8261 20.9876 14.4741 20.6357 14.04 20.6357Z" fill="#FFA800"/>
<path d="M13.0116 22.4277H10.9539C10.5199 22.4277 10.168 22.7796 10.168 23.2137C10.168 23.6477 10.5199 23.9996 10.9539 23.9996H13.0116C13.4457 23.9996 13.7976 23.6477 13.7976 23.2137C13.7976 22.7796 13.4457 22.4277 13.0116 22.4277Z" fill="#FFA800"/>
<path d="M22.845 10.8457H20.1336C19.6996 10.8457 19.3477 11.1976 19.3477 11.6317C19.3477 12.0658 19.6996 12.4177 20.1336 12.4177H22.845C23.2791 12.4177 23.631 12.0658 23.631 11.6317C23.631 11.1976 23.2791 10.8457 22.845 10.8457Z" fill="#FFA800"/>
<path d="M4.65178 11.6317C4.65178 11.1976 4.29987 10.8457 3.86581 10.8457H1.15413C0.720067 10.8457 0.368164 11.1976 0.368164 11.6317C0.368164 12.0658 0.720067 12.4177 1.15413 12.4177H3.86581C4.29987 12.4177 4.65178 12.0658 4.65178 11.6317Z" fill="#FFA800"/>
<path d="M11.9998 4.28413C12.4339 4.28413 12.7858 3.93223 12.7858 3.49817V0.785964C12.7858 0.351902 12.4339 0 11.9998 0C11.5658 0 11.2139 0.351902 11.2139 0.785964V3.49817C11.2139 3.93223 11.5658 4.28413 11.9998 4.28413Z" fill="#FFA800"/>
<path d="M18.3067 16.8269C17.9997 16.52 17.5022 16.5199 17.1951 16.8268C16.8882 17.1338 16.8881 17.6314 17.195 17.9384L19.1123 19.8563C19.2659 20.0098 19.467 20.0865 19.6682 20.0865C19.8693 20.0865 20.0704 20.0098 20.2239 19.8564C20.5309 19.5494 20.531 19.0518 20.224 18.7448L18.3067 16.8269Z" fill="#FFA800"/>
<path d="M5.69163 6.43564C5.84515 6.58917 6.04626 6.66598 6.24746 6.66598C6.44857 6.66598 6.64967 6.58927 6.80309 6.43585C7.11014 6.12891 7.11014 5.63134 6.8033 5.3244L4.8867 3.40707C4.57975 3.10002 4.08218 3.10002 3.77524 3.40686C3.46819 3.7138 3.46819 4.21137 3.77503 4.51831L5.69163 6.43564Z" fill="#FFA800"/>
<path d="M5.69252 16.8269L3.77508 18.7448C3.46813 19.0517 3.46824 19.5494 3.77518 19.8562C3.9286 20.0096 4.12981 20.0863 4.33091 20.0863C4.53201 20.0863 4.73322 20.0096 4.88675 19.8561L6.80419 17.9383C7.11113 17.6313 7.11103 17.1336 6.80408 16.8268C6.49714 16.52 5.99946 16.52 5.69252 16.8269Z" fill="#FFA800"/>
<path d="M17.7507 6.66588C17.9518 6.66588 18.153 6.58917 18.3066 6.43565L20.2235 4.51842C20.5304 4.21147 20.5303 3.7138 20.2234 3.40696C19.9164 3.10001 19.4188 3.10001 19.1119 3.40706L17.195 5.32429C16.8881 5.63124 16.8882 6.12891 17.1951 6.43575C17.3484 6.58927 17.5495 6.66588 17.7507 6.66588Z" fill="#FFA800"/>
</svg>
