<svg width="16" height="16" viewBox="0 0 16 16" fill="none" xmlns="http://www.w3.org/2000/svg">
<g clip-path="url(#clip0)">
<path d="M9.88611 2.72852V-0.03125H3.38452C2.54211 -0.03125 1.84375 0.662964 1.84375 1.50525V14.4323C1.84375 15.2747 2.54211 15.9688 3.38452 15.9688H12.6628C13.5051 15.9688 14.2035 15.2745 14.2035 14.4323V4.4978H11.6595C10.6776 4.4978 9.88611 3.7063 9.88611 2.72852ZM5.29773 7.88831L7.7782 5.22595C7.84168 5.1582 7.93054 5.12012 8.02783 5.12012C8.12525 5.12012 8.20984 5.1582 8.27759 5.22595L10.7581 7.88831C10.885 8.0238 10.8766 8.23962 10.7411 8.3667C10.6776 8.4259 10.5929 8.45557 10.5126 8.45557C10.4236 8.45557 10.3306 8.41748 10.2628 8.34973L8.36231 6.31799V11.156C8.36231 11.3423 8.20996 11.4946 8.02368 11.4946C7.8374 11.4946 7.68506 11.3423 7.68506 11.156V6.31799L5.79297 8.34973C5.66602 8.48511 5.45007 8.49365 5.3147 8.3667C5.1792 8.23962 5.17078 8.02808 5.29773 7.88831ZM11.8458 13.3867C11.8458 13.573 11.6935 13.7253 11.5072 13.7253H4.54004C4.35376 13.7253 4.20142 13.573 4.20142 13.3867C4.20142 13.2004 4.35376 13.0481 4.54004 13.0481H11.5115C11.6978 13.0481 11.8458 13.2006 11.8458 13.3867Z" fill="white"/>
<path d="M11.6596 3.82044H13.7379L10.5633 0.489258V2.72839C10.5633 3.33374 11.05 3.82044 11.6596 3.82044Z" fill="white"/>
</g>
<defs>
<clipPath id="clip0">
<rect width="16" height="16" fill="white"/>
</clipPath>
</defs>
</svg>
