<?xml version="1.0" encoding="utf-8"?>
<!-- Generator: Adobe Illustrator 24.0.0, SVG Export Plug-In . SVG Version: 6.00 Build 0)  -->
<svg version="1.1" id="Layer_1" xmlns="http://www.w3.org/2000/svg" xmlns:xlink="http://www.w3.org/1999/xlink" x="0px" y="0px"
	 viewBox="0 0 24 24" style="enable-background:new 0 0 24 24;" xml:space="preserve">
<style type="text/css">
	.st0{fill:#008DC9;}
</style>
<g>
	<g>
		<path class="st0" d="M17.7,7.5H16c-0.1-1-0.9-1.8-1.9-1.9V4.2h0.7C16,4.2,17,3.3,17,2.1C17,0.9,16,0,14.9,0H8.3
			C7.1,0,6.2,0.9,6.2,2.1c0,1.2,0.9,2.1,2.1,2.1H9v1.4C8,5.7,7.2,6.5,7.1,7.5H4.2V6.3c0-0.4-0.3-0.7-0.7-0.7H0.7
			C0.3,5.6,0,5.9,0,6.3v7.5c0,0.4,0.3,0.7,0.7,0.7h2.8c0.4,0,0.7-0.3,0.7-0.7v-1.2h2.9c0.1,1.1,1,1.9,2.1,1.9h4.7
			c1.1,0,2-0.8,2.1-1.9h1.7c0.6,0,1.2,0.5,1.2,1.2v1.6c0,0.4,0.3,0.7,0.7,0.7h3.8c0.4,0,0.7-0.3,0.7-0.7v-1.6
			C24,10.3,21.2,7.5,17.7,7.5z M7.6,2.1c0-0.4,0.3-0.7,0.7-0.7h6.6c0.4,0,0.7,0.3,0.7,0.7c0,0.4-0.3,0.7-0.7,0.7H8.3
			C7.9,2.8,7.6,2.5,7.6,2.1z M12.8,4.2v1.4h-2.3V4.2H12.8z M2.8,13.1H1.4V7h1.4V13.1z M4.2,8.9h2.9v2.3H4.2V8.9z M14.6,12.4
			c0,0.4-0.3,0.7-0.7,0.7H9.2c-0.4,0-0.7-0.3-0.7-0.7V7.7C8.5,7.3,8.8,7,9.2,7h4.7c0.4,0,0.7,0.3,0.7,0.7V12.4z M22.6,14.8h-2.3
			v-0.9c0-1.4-1.2-2.6-2.6-2.6H16V8.9h1.6c2.7,0,4.9,2.2,4.9,4.9V14.8z"/>
		<path class="st0" d="M22,17.9c-0.1-0.2-0.3-0.3-0.6-0.3c-0.2,0-0.4,0.1-0.6,0.3l-1.5,2c-0.6,0.8-0.7,1.8-0.2,2.7s1.3,1.4,2.3,1.4
			c1,0,1.9-0.5,2.3-1.4s0.3-1.9-0.2-2.7L22,17.9z M22.5,21.9c-0.2,0.4-0.6,0.6-1,0.6c-0.5,0-0.8-0.2-1-0.6c-0.2-0.4-0.2-0.9,0.1-1.2
			l0.9-1.2l0.9,1.2C22.6,21.1,22.7,21.5,22.5,21.9z"/>
	</g>
</g>
</svg>
