<?xml version="1.0" encoding="utf-8"?>
<!-- Generator: Adobe Illustrator 24.0.0, SVG Export Plug-In . SVG Version: 6.00 Build 0)  -->
<svg version="1.1" id="Layer_1" xmlns="http://www.w3.org/2000/svg" xmlns:xlink="http://www.w3.org/1999/xlink" x="0px" y="0px"
	 viewBox="0 0 24 24" style="enable-background:new 0 0 24 24;" xml:space="preserve">
<style type="text/css">
	.st0{fill:#FFFFFF;}
</style>
<path class="st0" d="M12,5.4c-3.4,0-6.2,2.8-6.2,6.2c0,1.4,0.5,2.7,1.3,3.8c0.2,0.2,0.4,0.4,0.5,0.6l0,0c0.6,0.7,1.2,1.4,1.4,2.2
	c0.1,0.2,0.1,0.6,0.1,0.8v0.5c0,0.4,0.4,0.8,0.8,0.8H14c0.4,0,0.8-0.4,0.8-0.8v-0.5c0-0.4,0-0.6,0.1-0.8c0.2-0.8,0.9-1.6,1.5-2.3
	l0,0c0.2-0.2,0.3-0.4,0.5-0.6c0.9-1.1,1.3-2.4,1.3-3.8C18.2,8.2,15.4,5.4,12,5.4z M15.6,14.5c-0.1,0.2-0.3,0.3-0.4,0.5l0,0
	c-0.7,0.8-1.5,1.7-1.8,2.9c0,0.2-0.1,0.4-0.1,0.9h-2.5c0-0.5-0.1-0.8-0.1-0.9c-0.3-1.2-1.1-2.1-1.7-2.8l0,0
	c-0.2-0.2-0.3-0.4-0.5-0.6c-0.6-0.8-1-1.8-1-2.9C7.4,9.1,9.4,7,12,7c2.6,0,4.6,2.1,4.6,4.6C16.6,12.7,16.3,13.7,15.6,14.5z"/>
<path class="st0" d="M14,20.6H9.9c-0.4,0-0.8,0.4-0.8,0.8c0,0.4,0.4,0.8,0.8,0.8H14c0.4,0,0.8-0.4,0.8-0.8
	C14.8,21,14.5,20.6,14,20.6z"/>
<path class="st0" d="M13,22.4H11c-0.4,0-0.8,0.4-0.8,0.8c0,0.4,0.4,0.8,0.8,0.8H13c0.4,0,0.8-0.4,0.8-0.8
	C13.8,22.8,13.4,22.4,13,22.4z"/>
<path class="st0" d="M22.8,10.8h-2.7c-0.4,0-0.8,0.4-0.8,0.8s0.4,0.8,0.8,0.8h2.7c0.4,0,0.8-0.4,0.8-0.8S23.3,10.8,22.8,10.8z"/>
<path class="st0" d="M4.7,11.6c0-0.4-0.4-0.8-0.8-0.8H1.2c-0.4,0-0.8,0.4-0.8,0.8s0.4,0.8,0.8,0.8h2.7C4.3,12.4,4.7,12.1,4.7,11.6z"
	/>
<path class="st0" d="M12,4.3c0.4,0,0.8-0.4,0.8-0.8V0.8C12.8,0.4,12.4,0,12,0c-0.4,0-0.8,0.4-0.8,0.8v2.7C11.2,3.9,11.6,4.3,12,4.3z
	"/>
<path class="st0" d="M18.3,17c-0.3-0.3-0.8-0.3-1.1,0c-0.3,0.3-0.3,0.8,0,1l1.9,1.8c0.2,0.1,0.4,0.2,0.6,0.2c0.2,0,0.4-0.1,0.6-0.2
	c0.3-0.3,0.3-0.8,0-1L18.3,17z"/>
<path class="st0" d="M5.7,6.4C5.8,6.6,6,6.7,6.2,6.7c0.2,0,0.4-0.1,0.6-0.2c0.3-0.3,0.3-0.8,0-1.1L4.9,3.4c-0.3-0.3-0.8-0.3-1.1,0
	c-0.3,0.3-0.3,0.8,0,1.1L5.7,6.4z"/>
<path class="st0" d="M5.7,16.8l-1.9,1.9c-0.3,0.3-0.3,0.8,0,1.1c0.2,0.2,0.4,0.2,0.6,0.2c0.2,0,0.4-0.1,0.6-0.2l1.9-1.9
	c0.3-0.3,0.3-0.8,0-1.1C6.5,16.5,6,16.5,5.7,16.8z"/>
<path class="st0" d="M17.8,6.7c0.2,0,0.4-0.1,0.6-0.2l1.9-1.9c0.3-0.3,0.3-0.8,0-1.1c-0.3-0.3-0.8-0.3-1.1,0l-1.9,1.9
	c-0.3,0.3-0.3,0.8,0,1.1C17.3,6.6,17.5,6.7,17.8,6.7z"/>
</svg>
