<?xml version="1.0" encoding="utf-8"?>
<!-- Generator: Adobe Illustrator 24.0.0, SVG Export Plug-In . SVG Version: 6.00 Build 0)  -->
<svg version="1.1" id="Layer_1" xmlns="http://www.w3.org/2000/svg" xmlns:xlink="http://www.w3.org/1999/xlink" x="0px" y="0px"
	 viewBox="0 0 24 24" style="enable-background:new 0 0 24 24;" xml:space="preserve">
<style type="text/css">
	.st0{clip-path:url(#SVGID_2_);}
	.st1{fill:#8A6ACE;}
</style>
<g>
	<defs>
		<rect id="SVGID_1_" width="24" height="24"/>
	</defs>
	<clipPath id="SVGID_2_">
		<use xlink:href="#SVGID_1_"  style="overflow:visible;"/>
	</clipPath>
	<g class="st0">
		<path class="st1" d="M4,11.3L4,11.3c4.4-4.4,11.6-4.4,16.1,0c0.5,0.5,0.5,1.2,0,1.7c-0.2,0.2-0.5,0.3-0.8,0.3
			c-0.3,0-0.6-0.1-0.8-0.3c-3.5-3.5-9.2-3.5-12.7,0c-0.5,0.5-1.2,0.5-1.7,0C3.5,12.5,3.5,11.8,4,11.3z"/>
		<path class="st1" d="M16.5,14.8L16.5,14.8c0.5,0.5,0.5,1.2,0,1.7c-0.2,0.2-0.5,0.3-0.8,0.3c-0.3,0-0.6-0.1-0.8-0.3
			c-1.6-1.6-4.2-1.6-5.8,0c-0.5,0.5-1.2,0.5-1.7,0C7,16,7,15.3,7.4,14.8C10,12.3,14,12.3,16.5,14.8z"/>
		<path class="st1" d="M13.6,19.4c0,0.9-0.7,1.6-1.6,1.6s-1.6-0.7-1.6-1.6c0-0.9,0.7-1.6,1.6-1.6S13.6,18.5,13.6,19.4z"/>
		<path class="st1" d="M0.4,9.5C0,9,0,8.3,0.4,7.8c6.4-6.4,16.7-6.4,23.1,0C24,8.3,24,9,23.6,9.5c-0.2,0.2-0.5,0.3-0.8,0.3
			c-0.3,0-0.6-0.1-0.8-0.3C16.4,4,7.6,4,2.1,9.5C1.7,9.9,0.9,9.9,0.4,9.5z"/>
	</g>
</g>
</svg>
