<svg width="18" height="18" viewBox="0 0 18 18" fill="none" xmlns="http://www.w3.org/2000/svg">
<path d="M9.92138 0.691178C9.79313 0.585428 9.62325 0.541553 9.459 0.571928L0.459 2.25943C0.192375 2.30893 0 2.54068 0 2.8118V15.1868C0 15.4568 0.192375 15.6897 0.459 15.7392L9.459 17.4267C9.49275 17.4334 9.52875 17.4368 9.5625 17.4368C9.69188 17.4368 9.82013 17.3918 9.92138 17.3074C10.0508 17.2006 10.125 17.0408 10.125 16.8743V1.1243C10.125 0.956678 10.0508 0.798053 9.92138 0.691178ZM9 16.1959L1.125 14.7199V3.27868L9 1.80268V16.1959Z" fill="#00B14F"/>
<path d="M17.4375 2.8125H9.5625C9.252 2.8125 9 3.0645 9 3.375C9 3.6855 9.252 3.9375 9.5625 3.9375H16.875V14.0625H9.5625C9.252 14.0625 9 14.3145 9 14.625C9 14.9355 9.252 15.1875 9.5625 15.1875H17.4375C17.748 15.1875 18 14.9355 18 14.625V3.375C18 3.0645 17.748 2.8125 17.4375 2.8125Z" fill="#00B14F"/>
<path d="M11.8125 5.0625H9.5625C9.252 5.0625 9 5.3145 9 5.625C9 5.9355 9.252 6.1875 9.5625 6.1875H11.8125C12.123 6.1875 12.375 5.9355 12.375 5.625C12.375 5.3145 12.123 5.0625 11.8125 5.0625Z" fill="#00B14F"/>
<path d="M11.8125 7.3125H9.5625C9.252 7.3125 9 7.5645 9 7.875C9 8.1855 9.252 8.4375 9.5625 8.4375H11.8125C12.123 8.4375 12.375 8.1855 12.375 7.875C12.375 7.5645 12.123 7.3125 11.8125 7.3125Z" fill="#00B14F"/>
<path d="M11.8125 9.5625H9.5625C9.252 9.5625 9 9.8145 9 10.125C9 10.4355 9.252 10.6875 9.5625 10.6875H11.8125C12.123 10.6875 12.375 10.4355 12.375 10.125C12.375 9.8145 12.123 9.5625 11.8125 9.5625Z" fill="#00B14F"/>
<path d="M11.8125 11.8125H9.5625C9.252 11.8125 9 12.0645 9 12.375C9 12.6855 9.252 12.9375 9.5625 12.9375H11.8125C12.123 12.9375 12.375 12.6855 12.375 12.375C12.375 12.0645 12.123 11.8125 11.8125 11.8125Z" fill="#00B14F"/>
<path d="M15.1875 5.0625H14.0625C13.752 5.0625 13.5 5.3145 13.5 5.625C13.5 5.9355 13.752 6.1875 14.0625 6.1875H15.1875C15.498 6.1875 15.75 5.9355 15.75 5.625C15.75 5.3145 15.498 5.0625 15.1875 5.0625Z" fill="#00B14F"/>
<path d="M15.1875 7.3125H14.0625C13.752 7.3125 13.5 7.5645 13.5 7.875C13.5 8.1855 13.752 8.4375 14.0625 8.4375H15.1875C15.498 8.4375 15.75 8.1855 15.75 7.875C15.75 7.5645 15.498 7.3125 15.1875 7.3125Z" fill="#00B14F"/>
<path d="M15.1875 9.5625H14.0625C13.752 9.5625 13.5 9.8145 13.5 10.125C13.5 10.4355 13.752 10.6875 14.0625 10.6875H15.1875C15.498 10.6875 15.75 10.4355 15.75 10.125C15.75 9.8145 15.498 9.5625 15.1875 9.5625Z" fill="#00B14F"/>
<path d="M15.1875 11.8125H14.0625C13.752 11.8125 13.5 12.0645 13.5 12.375C13.5 12.6855 13.752 12.9375 14.0625 12.9375H15.1875C15.498 12.9375 15.75 12.6855 15.75 12.375C15.75 12.0645 15.498 11.8125 15.1875 11.8125Z" fill="#00B14F"/>
<path d="M7.73665 10.8801L3.79915 6.3801C3.59215 6.14498 3.23778 6.12248 3.0049 6.32723C2.7709 6.53198 2.74728 6.88748 2.95203 7.12035L6.88953 11.6204C7.0009 11.7475 7.15615 11.8127 7.31253 11.8127C7.44415 11.8127 7.57578 11.7666 7.68378 11.6732C7.91778 11.4685 7.9414 11.1141 7.73665 10.8801Z" fill="#00B14F"/>
<path d="M7.65786 5.74418C7.41261 5.55181 7.05936 5.59793 6.86811 5.84206L2.93061 10.9045C2.74049 11.1498 2.78436 11.5042 3.02961 11.6943C3.13311 11.7742 3.25461 11.8124 3.37499 11.8124C3.54149 11.8124 3.70799 11.7382 3.81824 11.5964L7.75574 6.53393C7.94699 6.28755 7.90311 5.93431 7.65786 5.74418Z" fill="#00B14F"/>
</svg>
