<?xml version="1.0" encoding="utf-8"?>
<!-- Generator: Adobe Illustrator 24.0.0, SVG Export Plug-In . SVG Version: 6.00 Build 0)  -->
<svg version="1.1" id="Layer_1" xmlns="http://www.w3.org/2000/svg" xmlns:xlink="http://www.w3.org/1999/xlink" x="0px" y="0px"
	 viewBox="0 0 24 24" style="enable-background:new 0 0 24 24;" xml:space="preserve">
<style type="text/css">
	.st0{fill:#444E99;}
</style>
<g>
	<g>
		<path class="st0" d="M23.7,17.9c-0.6-1.2-2-1.7-3.3-1.2c-0.9,0.3-2,0.8-3.2,1.1c0.1-0.5,0.1-1.1-0.2-1.6c-0.3-0.8-1-1.4-1.8-1.6
			c-0.4-0.1-0.9-0.1-1.4-0.1c-3.2,0.4-5.1-0.6-6.8-1.6c-1.1-0.6-2.2-1.3-3.5-1.3c-1.5,0-2.9,0.5-2.9,0.5c-0.5,0.2-0.8,0.7-0.6,1.2
			c0.2,0.5,0.7,0.8,1.2,0.6c0,0,1.1-0.4,2.3-0.4c0.8,0,1.5,0.4,2.5,1c1.5,0.8,3.4,2,6.3,2c0.5,0,1.1,0,1.7-0.1c0.2,0,0.4,0,0.6,0
			c0.2,0.1,0.5,0.2,0.6,0.5c0.1,0.2,0.1,0.5,0,0.7c-0.1,0.3-0.4,0.5-0.7,0.6c-0.5,0.2-1.2,0.3-2.1,0.3c-0.9,0-1.8-0.1-2.5-0.3
			c-0.5-0.1-1,0.2-1.1,0.7c-0.1,0.5,0.2,1,0.7,1.1c0.9,0.2,2,0.4,3,0.4v0c3.6,0,6.6-1.1,8.6-1.9c0.3-0.1,0.8-0.1,1,0.3
			c0.2,0.3,0,0.8-0.3,0.9c-2.4,1.3-5.1,2.4-9.1,2.4c-3.6,0-6.9-1.4-9-2.5C2.2,18.8,1,18.9,0.8,19c0,0-0.7,0.1-0.7,0.9
			c0,0.5,0.4,0.9,0.9,0.9c0.1,0,0.2,0,0.2,0s0.6-0.1,1.6,0.4c2.3,1.3,5.9,2.8,9.9,2.8c5,0,8.4-1.8,10-2.6
			C23.9,20.7,24.4,19.1,23.7,17.9z"/>
		<path class="st0" d="M8.1,9.2c0.2,0.3,0.5,0.5,0.8,0.5c0.2,0,0.3,0,0.5-0.1L10.2,9c0.6,0.6,1.3,1.1,2.2,1.3v0.9
			c0,0.5,0.4,0.9,0.9,0.9c0.5,0,0.9-0.4,0.9-0.9v-0.9c0.8-0.2,1.6-0.6,2.2-1.2l0.8,0.5c0.1,0.1,0.3,0.1,0.5,0.1
			c0.3,0,0.6-0.2,0.8-0.5c0.3-0.4,0.1-1-0.3-1.3l-0.7-0.4c0.1-0.4,0.2-0.9,0.2-1.4c0-0.5-0.1-0.9-0.2-1.4l0.7-0.4
			C18.6,4,18.8,3.4,18.5,3c-0.3-0.4-0.8-0.6-1.3-0.3l-0.8,0.5c-0.6-0.6-1.3-1-2.2-1.2V0.9c0-0.5-0.4-0.9-0.9-0.9
			c-0.5,0-0.9,0.4-0.9,0.9v0.9c-0.9,0.2-1.6,0.6-2.2,1.3L9.4,2.7C8.9,2.4,8.4,2.5,8.1,3C7.8,3.4,8,4,8.4,4.3l0.8,0.5
			C9.1,5.2,9.1,5.6,9.1,6.1c0,0.5,0.1,0.9,0.2,1.3L8.4,7.9C8,8.2,7.8,8.8,8.1,9.2z M13.4,3.7c1.3,0,2.4,1.1,2.4,2.4
			s-1.1,2.4-2.4,2.4c-1.3,0-2.4-1.1-2.4-2.4S12,3.7,13.4,3.7z"/>
	</g>
</g>
</svg>
