<svg width="16" height="16" viewBox="0 0 16 16" fill="none" xmlns="http://www.w3.org/2000/svg">
<path d="M7.55606 11.9977C7.56231 12.0039 7.56543 12.007 7.57168 12.0133C7.67168 12.107 7.79668 12.1633 7.93106 12.1789C7.93418 12.1789 7.93418 12.1789 7.93731 12.1789C7.95918 12.182 7.98106 12.182 7.99981 12.182C8.02168 12.182 8.04356 12.182 8.06231 12.1789C8.06543 12.1789 8.06856 12.1789 8.07481 12.1758C8.09356 12.1727 8.10918 12.1727 8.12481 12.1664C8.12793 12.1664 8.12793 12.1664 8.13106 12.1664C8.24981 12.1414 8.35918 12.082 8.44668 11.9945L11.0686 9.37266C11.3154 9.12578 11.3154 8.72891 11.0686 8.48203C10.8217 8.23516 10.4248 8.23516 10.1779 8.48203L8.62793 10.032V1.39766C8.62793 1.05078 8.34668 0.769531 7.99981 0.769531C7.65293 0.769531 7.37168 1.05078 7.37168 1.39766V10.032L5.8248 8.48516C5.57793 8.23828 5.18105 8.23828 4.93418 8.48516C4.6873 8.73203 4.6873 9.12891 4.93418 9.37578L7.55606 11.9977Z" fill="#008DC9"/>
<path d="M15.3719 9.7168C15.025 9.7168 14.7437 9.99805 14.7437 10.3449V13.2918C14.7437 13.6668 14.4375 13.973 14.0625 13.973H1.94062C1.56562 13.973 1.25937 13.6668 1.25937 13.2918V10.3449C1.25937 9.99805 0.978125 9.7168 0.63125 9.7168C0.284375 9.7168 0 9.99805 0 10.3449V13.2918C0 14.3605 0.86875 15.2324 1.94062 15.2324H14.0594C15.1281 15.2324 16 14.3637 16 13.2918V10.3449C16 9.99805 15.7188 9.7168 15.3719 9.7168Z" fill="#008DC9"/>
</svg>
