<svg width="12" height="12" viewBox="0 0 12 12" fill="none" xmlns="http://www.w3.org/2000/svg">
<path d="M11.3163 0.692036C10.9872 0.36293 10.4555 0.36293 10.1264 0.692036L5.99994 4.81009L1.87345 0.683598C1.54434 0.354491 1.0127 0.354491 0.683598 0.683598C0.354491 1.0127 0.354491 1.54434 0.683598 1.87345L4.81009 5.99994L0.683598 10.1264C0.354491 10.4555 0.354491 10.9872 0.683598 11.3163C1.0127 11.6454 1.54434 11.6454 1.87345 11.3163L5.99994 7.18978L10.1264 11.3163C10.4555 11.6454 10.9872 11.6454 11.3163 11.3163C11.6454 10.9872 11.6454 10.4555 11.3163 10.1264L7.18978 5.99994L11.3163 1.87345C11.6369 1.55278 11.6369 1.0127 11.3163 0.692036Z" fill="white"/>
</svg>
