<svg width="24" height="24" viewBox="0 0 24 24" fill="none" xmlns="http://www.w3.org/2000/svg">
<path d="M0.703125 8.53125H2.85938V7.82812C2.85938 7.43981 3.17419 7.125 3.5625 7.125H5.67188V5.71875H4.96875C4.58044 5.71875 4.26562 5.40394 4.26562 5.01562C4.26562 4.62731 4.58044 4.3125 4.96875 4.3125H5.67188V2.90625H4.96875C4.58044 2.90625 4.26562 2.59144 4.26562 2.20312C4.26562 1.81481 4.58044 1.5 4.96875 1.5H5.67188V0.703125C5.67188 0.314812 5.98669 0 6.375 0C6.76331 0 7.07812 0.314812 7.07812 0.703125V1.5H7.78125C8.16956 1.5 8.48438 1.81481 8.48438 2.20312C8.48438 2.59144 8.16956 2.90625 7.78125 2.90625H7.07812V4.3125H7.78125C8.16956 4.3125 8.48438 4.62731 8.48438 5.01562C8.48438 5.40394 8.16956 5.71875 7.78125 5.71875H7.07812V7.125H11.2969V5.71875H10.5938C10.2054 5.71875 9.89062 5.40394 9.89062 5.01562C9.89062 4.62731 10.2054 4.3125 10.5938 4.3125H11.2969V2.90625H10.5938C10.2054 2.90625 9.89062 2.59144 9.89062 2.20312C9.89062 1.81481 10.2054 1.5 10.5938 1.5H11.2969V0.703125C11.2969 0.314812 11.6117 0 12 0C12.3883 0 12.7031 0.314812 12.7031 0.703125V1.5H13.4062C13.7946 1.5 14.1094 1.81481 14.1094 2.20312C14.1094 2.59144 13.7946 2.90625 13.4062 2.90625H12.7031V4.3125H13.4062C13.7946 4.3125 14.1094 4.62731 14.1094 5.01562C14.1094 5.40394 13.7946 5.71875 13.4062 5.71875H12.7031V7.125H16.9219V5.71875H16.2188C15.8304 5.71875 15.5156 5.40394 15.5156 5.01562C15.5156 4.62731 15.8304 4.3125 16.2188 4.3125H16.9219V2.90625H16.2188C15.8304 2.90625 15.5156 2.59144 15.5156 2.20312C15.5156 1.81481 15.8304 1.5 16.2188 1.5H16.9219V0.703125C16.9219 0.314812 17.2367 0 17.625 0C18.0133 0 18.3281 0.314812 18.3281 0.703125V1.5H19.0312C19.4196 1.5 19.7344 1.81481 19.7344 2.20312C19.7344 2.59144 19.4196 2.90625 19.0312 2.90625H18.3281V4.3125H19.0312C19.4196 4.3125 19.7344 4.62731 19.7344 5.01562C19.7344 5.40394 19.4196 5.71875 19.0312 5.71875H18.3281V7.125H20.4375C20.8258 7.125 21.1406 7.43981 21.1406 7.82812V8.53125H23.2969C23.6852 8.53125 24 8.84606 24 9.23438V20.4844C24 20.8727 23.6852 21.1875 23.2969 21.1875H21.1406V21.8906C21.1406 22.2789 20.8258 22.5938 20.4375 22.5938H18.3281V23.2969C18.3281 23.6852 18.0133 24 17.625 24C17.2367 24 16.9219 23.6852 16.9219 23.2969V22.5938H7.07812V23.2969C7.07812 23.6852 6.76331 24 6.375 24C5.98669 24 5.67188 23.6852 5.67188 23.2969V22.5938H3.5625C3.17419 22.5938 2.85938 22.2789 2.85938 21.8906V21.1875H0.703125C0.314812 21.1875 0 20.8727 0 20.4844V9.23438C0 8.84606 0.314812 8.53125 0.703125 8.53125ZM8.48438 18.375V11.3438H7.07812V18.375H8.48438ZM11.2969 18.375V11.3438H9.89062V18.375H11.2969ZM14.1094 18.375V11.3438H12.7031V18.375H14.1094ZM16.9219 18.375V11.3438H15.5156V18.375H16.9219ZM19.7344 18.375V11.3438H18.3281V18.375H19.7344ZM5.67188 11.3438H4.26562V18.375H5.67188V11.3438ZM19.7344 8.53125H4.26562V9.9375H19.7344V8.53125ZM22.5938 19.7812V9.9375H21.1406V19.7812H22.5938ZM4.26562 21.1875H19.7344V19.7812H4.26562V21.1875ZM1.40625 19.7812H2.85938V9.9375H1.40625V19.7812Z" fill="#6981B1"/>
</svg>
