<svg xmlns="http://www.w3.org/2000/svg" viewBox="0 0 16.5 23.8"><title>Asset 1</title><g id="Layer_2" data-name="Layer 2"><g id="Layer_1-2" data-name="Layer 1"><path d="M13.4,5.1A5.3,5.3,0,0,0,8.1,0,5.36,5.36,0,0,0,2.7,5.3V20.5H.6a.58.58,0,0,0-.6.6v2.1a.58.58,0,0,0,.6.6H6.1a.65.65,0,0,0,.6-.6V21.1a.58.58,0,0,0-.6-.6H4V5.3a4.1,4.1,0,0,1,8.2-.2A3.75,3.75,0,0,0,9.1,8.8a.58.58,0,0,0,.6.6h1A2.13,2.13,0,0,0,12.8,11h.4a2.56,2.56,0,0,0,1.7-1.5h1a.58.58,0,0,0,.6-.6A3.78,3.78,0,0,0,13.4,5.1ZM5.5,21.8v.9H1.3v-.9ZM12.8,10a1.17,1.17,0,0,1-1.1-.8h2.2A1.17,1.17,0,0,1,12.8,10ZM10.1,8.5a2.72,2.72,0,0,1,3.1-2.3,2.65,2.65,0,0,1,2.3,2.3Z" fill="#00b14f" fill-opacity="0.8"/></g></g></svg>