<svg width="16" height="16" viewBox="0 0 16 16" fill="none" xmlns="http://www.w3.org/2000/svg">
<path d="M8.00008 8.86484C8.84185 8.86484 9.52406 8.18247 9.52406 7.34082C9.52406 6.49914 8.84189 5.8166 8.00008 5.8166C7.15827 5.8166 6.47601 6.49914 6.47601 7.34082C6.47601 8.18247 7.15827 8.86484 8.00008 8.86484Z" fill="#00B14F"/>
<path d="M11.6019 1.91324H9.23299V0.410984C9.23299 0.183984 9.04897 0 8.82197 0H7.17807C6.95111 0 6.76709 0.183984 6.76709 0.410984V1.91329H4.39814C3.50977 1.91329 2.78979 2.63338 2.78979 3.52171V14.3916C2.78979 15.2799 3.50977 16 4.39814 16H11.6019C12.4903 16 13.2103 15.2799 13.2103 14.3916V3.52171C13.2103 2.63334 12.4903 1.91324 11.6019 1.91324ZM7.46743 0.596344H8.53269C8.67733 0.596344 8.79454 0.713595 8.79454 0.858315C8.79454 1.00303 8.67733 1.12033 8.53269 1.12033H7.46743C7.32279 1.12033 7.2055 1.00303 7.2055 0.858315C7.2055 0.713595 7.32279 0.596344 7.46743 0.596344ZM6.64788 2.45911H6.76709V2.56628C6.76709 2.79328 6.95111 2.97726 7.17807 2.97726H8.82193C9.04893 2.97726 9.23295 2.79328 9.23295 2.56628V2.45911H9.35212C9.59884 2.45911 9.7987 2.65906 9.7987 2.90569C9.7987 3.15232 9.59884 3.35227 9.35212 3.35227H6.64788C6.4012 3.35227 6.2013 3.15228 6.2013 2.90569C6.2013 2.65906 6.4012 2.45911 6.64788 2.45911ZM5.23686 5.42112H10.7632V10.6535H10.127L10.2094 9.58335C10.2206 9.43888 10.1709 9.29633 10.0724 9.18996C9.97397 9.08363 9.83555 9.02323 9.69079 9.02323H6.30938C6.16449 9.02323 6.02619 9.08363 5.9277 9.18996C5.82924 9.29637 5.7796 9.43892 5.79073 9.58335L5.87305 10.6535H5.2369L5.23686 5.42112ZM10.6983 13.6984H5.3018C5.02441 13.6984 4.79945 13.4735 4.79945 13.1959C4.79945 12.9185 5.02437 12.6935 5.3018 12.6935H10.6983C10.9756 12.6935 11.2007 12.9185 11.2007 13.1959C11.2006 13.4734 10.9757 13.6984 10.6983 13.6984Z" fill="#00B14F"/>
</svg>
