<svg width="123" height="64" viewBox="0 0 123 64" fill="none" xmlns="http://www.w3.org/2000/svg">
<g clip-path="url(#clip0)">
<path d="M121.271 0.0285339H68.4872C67.5122 0.0285339 66.7145 0.832068 66.7145 1.81417C66.7145 2.79626 67.5122 3.5998 68.4872 3.5998H119.513V45.9788H3.55986V3.5998H33.9775C34.9525 3.5998 35.7502 2.79626 35.7502 1.81417C35.7502 0.832068 34.9525 0.0285339 33.9775 0.0285339H1.7871C0.812086 0.0285339 0.0143433 0.832068 0.0143433 1.81417V47.7644C0.0143433 48.7465 0.812086 49.55 1.7871 49.55H121.286C122.261 49.55 123.059 48.7465 123.059 47.7644V1.81417C123.044 0.817188 122.261 0.0285339 121.271 0.0285339Z" fill="#933535"/>
<path d="M42.6053 3.60102H58.8704C59.8454 3.60102 60.6432 2.79748 60.6432 1.81539C60.6432 0.833289 59.8454 0.0297546 58.8704 0.0297546H42.6053C41.6303 0.0297546 40.8326 0.833289 40.8326 1.81539C40.8326 2.79748 41.6156 3.60102 42.6053 3.60102Z" fill="#933535"/>
<path d="M12.6457 17.4248C11.6707 17.4248 10.8729 18.2283 10.8729 19.2104V36.8286C10.8729 37.8107 11.6707 38.6143 12.6457 38.6143C13.6207 38.6143 14.4184 37.8107 14.4184 36.8286V19.2104C14.4184 18.2283 13.6207 17.4248 12.6457 17.4248Z" fill="#00B14F"/>
<path d="M12.6457 10.9667C11.6707 10.9667 10.8729 11.7703 10.8729 12.7524V13.1244C10.8729 14.1065 11.6707 14.91 12.6457 14.91C13.6207 14.91 14.4184 14.1065 14.4184 13.1244V12.7524C14.4184 11.7554 13.6207 10.9667 12.6457 10.9667Z" fill="#00B14F"/>
<path d="M58.8704 10.9667H42.6053C41.6303 10.9667 40.8326 11.7703 40.8326 12.7524C40.8326 13.7345 41.6303 14.538 42.6053 14.538H57.0977V23.0049H42.6053C41.6303 23.0049 40.8326 23.8084 40.8326 24.7905V36.8286C40.8326 37.8107 41.6303 38.6143 42.6053 38.6143H58.8704C59.8454 38.6143 60.6432 37.8107 60.6432 36.8286V12.7524C60.6432 11.7554 59.8454 10.9667 58.8704 10.9667ZM57.0977 26.5761V35.043H44.3781V26.5761H57.0977Z" fill="#00B14F"/>
<path d="M110.428 23.0049H102.288C101.313 23.0049 100.516 23.8084 100.516 24.7905C100.516 25.7726 101.313 26.5761 102.288 26.5761H108.655V35.043H95.9359V14.538H110.428C111.403 14.538 112.201 13.7345 112.201 12.7524C112.201 11.7703 111.403 10.9667 110.428 10.9667H94.1483C93.1733 10.9667 92.3755 11.7703 92.3755 12.7524V36.8435C92.3755 37.8256 93.1733 38.6292 94.1483 38.6292H110.413C111.388 38.6292 112.186 37.8256 112.186 36.8435V24.8054C112.201 23.8084 111.403 23.0049 110.428 23.0049Z" fill="#00B14F"/>
<path d="M84.7527 10.9667H68.4877C67.5126 10.9667 66.7149 11.7703 66.7149 12.7524V36.8435C66.7149 37.8256 67.5126 38.6292 68.4877 38.6292C69.4627 38.6292 70.2604 37.8256 70.2604 36.8435V14.538H82.98V36.8435C82.98 37.8256 83.7777 38.6292 84.7527 38.6292C85.7277 38.6292 86.5255 37.8256 86.5255 36.8435V12.7524C86.5255 11.7554 85.7277 10.9667 84.7527 10.9667Z" fill="#00B14F"/>
<path d="M33.9779 35.043H23.7845V12.7524C23.7845 11.7703 22.9868 10.9667 22.0118 10.9667C21.0368 10.9667 20.239 11.7703 20.239 12.7524V36.8435C20.239 37.8256 21.0368 38.6292 22.0118 38.6292H33.9779C34.9529 38.6292 35.7507 37.8256 35.7507 36.8435C35.7507 35.8614 34.9529 35.043 33.9779 35.043Z" fill="#00B14F"/>
<path d="M11.7888 62.006H10.9025L11.7593 57.0807H12.6457L11.7888 62.006ZM12.8673 55.8307H11.9809L12.1434 54.923H13.0298L12.8673 55.8307Z" fill="#00B14F"/>
<path d="M14.3298 61.3067H17.4322L17.314 62.006H13.3253L14.4776 55.3843H15.3639L14.3298 61.3067Z" fill="#00B14F"/>
<path d="M21.1549 62.006C21.1549 61.8572 21.1549 61.7233 21.1549 61.6191C21.1549 61.5001 21.1697 61.3959 21.1845 61.2769C20.9776 61.515 20.7265 61.7084 20.431 61.8721C20.1356 62.0358 19.8401 62.1102 19.5299 62.1102C19.0276 62.1102 18.6583 61.9763 18.4367 61.7233C18.2151 61.4555 18.1412 61.0983 18.2299 60.637C18.3185 60.1609 18.5696 59.8038 18.9833 59.5359C19.4117 59.2681 19.9435 59.1341 20.5935 59.1341H21.5538L21.6424 58.6431C21.6867 58.3604 21.6424 58.1223 21.4947 57.9586C21.347 57.7949 21.1106 57.7056 20.8004 57.7056C20.5197 57.7056 20.2685 57.78 20.0617 57.9288C19.8549 58.0776 19.7367 58.2562 19.7072 58.4645H18.8651V58.4348C18.9094 58.0776 19.131 57.7503 19.5447 57.4527C19.9435 57.1551 20.431 57.0063 20.9924 57.0063C21.539 57.0063 21.9674 57.1551 22.2481 57.4378C22.5288 57.7205 22.6322 58.1223 22.5436 58.658L22.1299 61.0239C22.1004 61.2025 22.0856 61.3662 22.0708 61.5299C22.0561 61.6935 22.0708 61.8572 22.0856 62.006H21.1549ZM19.7958 61.3513C20.1208 61.3513 20.4163 61.262 20.7117 61.0983C20.9924 60.9347 21.1992 60.7412 21.3174 60.5329L21.4504 59.7294H20.4458C20.0913 59.7294 19.781 59.8186 19.5447 59.9972C19.2935 60.1758 19.1458 60.399 19.1162 60.637C19.0719 60.8603 19.1162 61.0239 19.2344 61.1579C19.3378 61.2918 19.5299 61.3513 19.7958 61.3513ZM21.3617 56.3813H20.6526L19.7367 55.2058L19.7515 55.176H20.7856L21.3617 56.3813Z" fill="#00B14F"/>
<path d="M24.8777 57.0956L24.8186 57.8247C25.0254 57.5568 25.2618 57.3634 25.5425 57.2146C25.8084 57.0658 26.1039 56.9914 26.4141 56.9914C26.9459 56.9914 27.3153 57.1402 27.5516 57.4527C27.788 57.7652 27.8471 58.2413 27.7289 58.8961L27.1823 62.0061H26.2959L26.8425 58.9258C26.9164 58.4943 26.8869 58.1818 26.7539 58.0033C26.6209 57.8247 26.3698 57.7354 26.03 57.7354C25.7789 57.7354 25.5425 57.7949 25.3209 57.9288C25.0993 58.0479 24.922 58.2265 24.7595 58.4348L24.1391 62.0209H23.2527L24.1095 57.0956H24.8777Z" fill="#00B14F"/>
<path d="M28.7039 59.6401C28.8369 58.8514 29.1324 58.2116 29.5608 57.7205C29.9892 57.2295 30.5062 56.9914 31.1119 56.9914C31.4222 56.9914 31.6881 57.0509 31.8949 57.1848C32.1017 57.3039 32.279 57.4973 32.3824 57.7205L32.604 57.0807H33.3131L32.4415 62.0209C32.3381 62.6459 32.0574 63.1369 31.6438 63.4792C31.2154 63.8214 30.6688 63.9851 29.9744 63.9851C29.7381 63.9851 29.4869 63.9554 29.2358 63.881C28.9699 63.8214 28.7483 63.7322 28.5562 63.6131L28.9108 62.9137C29.0585 63.003 29.2358 63.0774 29.4426 63.1369C29.6642 63.1965 29.871 63.2262 30.0926 63.2262C30.521 63.2262 30.8608 63.1221 31.0972 62.9286C31.3335 62.7352 31.4813 62.4227 31.5551 62.0209L31.6585 61.4704C31.4665 61.6787 31.2449 61.8275 31.0085 61.9316C30.7722 62.0358 30.5062 62.0953 30.2108 62.0953C29.6051 62.0953 29.1767 61.8721 28.9108 61.4406C28.6449 61.0091 28.571 60.4287 28.6892 59.7294L28.7039 59.6401ZM29.5755 59.7294C29.4869 60.2204 29.5165 60.6222 29.679 60.9198C29.8415 61.2174 30.1222 61.3662 30.5506 61.3662C30.8165 61.3662 31.0529 61.3067 31.2597 61.1876C31.4665 61.0686 31.6438 60.89 31.7915 60.6668L32.1904 58.405C32.1165 58.1967 31.9983 58.033 31.8358 57.914C31.6733 57.7949 31.4665 57.7354 31.2006 57.7354C30.7722 57.7354 30.4324 57.914 30.1517 58.2711C29.8858 58.6282 29.6937 59.0895 29.5903 59.655L29.5755 59.7294Z" fill="#00B14F"/>
<path d="M38.1882 59.5657H35.9722L36.0904 58.8663H38.3064L38.1882 59.5657Z" fill="#00B14F"/>
<path d="M43.211 59.03H42.4428L41.9258 62.0209H41.0394L42.1917 55.3992H43.0781L42.561 58.3306H43.2406L46.1065 55.3992H47.0963L47.1111 55.429L44.0088 58.6133L46.1508 62.006L46.1361 62.0358H45.0576L43.211 59.03Z" fill="#00B14F"/>
<path d="M48.6918 62.1102C48.0122 62.1102 47.5099 61.887 47.1849 61.4257C46.8599 60.9644 46.7713 60.3841 46.8895 59.655L46.919 59.4615C47.0372 58.7621 47.3474 58.1818 47.8497 57.7205C48.352 57.2592 48.869 57.0212 49.4452 57.0212C50.11 57.0212 50.5679 57.2146 50.8339 57.6164C51.0998 58.0181 51.1736 58.5538 51.0555 59.2234L50.952 59.7889H47.7906L47.7758 59.8186C47.702 60.2948 47.7463 60.6817 47.9236 60.9793C48.1008 61.2769 48.3963 61.4406 48.81 61.4406C49.1054 61.4406 49.3861 61.3959 49.6225 61.3067C49.8588 61.2174 50.0804 61.0983 50.2725 60.9495L50.5236 61.5299C50.3168 61.7084 50.0657 61.8424 49.7554 61.9614C49.46 62.0507 49.1054 62.1102 48.6918 62.1102ZM49.4009 55.0123H50.11L51.2032 56.1879L51.1884 56.2176H50.302L49.6668 55.5034L48.7952 56.2176H47.894V56.1879L49.4009 55.0123ZM49.327 57.7056C49.0315 57.7056 48.7509 57.8247 48.4997 58.0776C48.2486 58.3306 48.0565 58.6431 47.9383 59.03V59.0597H50.1838L50.1986 58.9407C50.2577 58.5836 50.2134 58.3009 50.0657 58.0628C49.9475 57.8247 49.6963 57.7056 49.327 57.7056ZM51.868 54.2237H52.8134L51.6907 55.3992H51.0259L51.868 54.2237Z" fill="#00B14F"/>
<path d="M53.818 55.9051L53.6112 57.0955H54.5419L54.4237 57.7652H53.493L52.976 60.7561C52.9316 60.9793 52.9612 61.143 53.0351 61.2471C53.1089 61.3364 53.2271 61.3811 53.3896 61.3811C53.4339 61.3811 53.493 61.3811 53.5669 61.3662C53.626 61.3513 53.6851 61.3364 53.7442 61.3215L53.7589 61.9316C53.6851 61.9911 53.5817 62.0358 53.4487 62.0655C53.3157 62.0953 53.1828 62.1251 53.0498 62.1251C52.6953 62.1251 52.4146 62.0209 52.2521 61.7977C52.0748 61.5745 52.0305 61.2322 52.1191 60.771L52.6362 57.78H51.8532L51.9714 57.1104H52.7544L52.9612 55.92H53.818V55.9051Z" fill="#00B14F"/>
<path d="M58.7227 57.0956L58.6636 57.8247C58.8704 57.5568 59.1068 57.3634 59.3875 57.2146C59.6534 57.0658 59.9488 56.9914 60.2591 56.9914C60.7909 56.9914 61.1602 57.1402 61.3966 57.4527C61.633 57.7652 61.692 58.2413 61.5739 58.8961L61.0273 62.0061H60.1409L60.6875 58.9258C60.7614 58.4943 60.7318 58.1818 60.5989 58.0033C60.4659 57.8247 60.2148 57.7354 59.875 57.7354C59.6238 57.7354 59.3875 57.7949 59.1659 57.9288C58.9443 58.0479 58.767 58.2265 58.6045 58.4348L57.984 62.0209H57.0977L57.9545 57.0956H58.7227Z" fill="#00B14F"/>
<path d="M62.5488 59.5062C62.6818 58.777 62.9773 58.1818 63.45 57.7056C63.9227 57.2295 64.4989 57.0063 65.1637 57.0063C65.8432 57.0063 66.3307 57.2444 66.641 57.7056C66.9512 58.1818 67.0398 58.777 66.9216 59.5062L66.9069 59.6103C66.7739 60.3394 66.4784 60.9495 66.0057 61.4108C65.533 61.8721 64.9568 62.1102 64.2921 62.1102C63.6125 62.1102 63.125 61.8721 62.8148 61.4108C62.5045 60.9495 62.4159 60.3394 62.5341 59.6103L62.5488 59.5062ZM63.4205 59.5954C63.3318 60.1162 63.3614 60.5478 63.5239 60.89C63.6864 61.2323 63.9818 61.3959 64.4102 61.3959C64.8387 61.3959 65.1932 61.2323 65.4591 60.89C65.7398 60.5478 65.9171 60.1162 66.0205 59.5954L66.0353 59.4913C66.1239 58.9705 66.0944 58.5538 65.9319 58.2116C65.7693 57.8693 65.4739 57.7056 65.0455 57.7056C64.6171 57.7056 64.2773 57.8693 63.9966 58.2116C63.7159 58.5538 63.5386 58.9853 63.45 59.4913L63.4205 59.5954ZM65.1341 55.0123H65.8432L66.9364 56.1879L66.9216 56.2176H66.0353L65.4 55.5034L64.5284 56.2176H63.6273V56.1879L65.1341 55.0123ZM67.616 54.2386H68.5614L67.4387 55.4141H66.7739L67.616 54.2386Z" fill="#00B14F"/>
<path d="M68.532 62.006H67.6456L68.5024 57.0807H69.3888L68.532 62.006ZM69.6104 55.8307H68.724L68.8865 54.923H69.7729L69.6104 55.8307Z" fill="#00B14F"/>
<path d="M73.3775 61.3067H76.4798L76.3617 62.006H72.3582L73.5105 55.3843H74.3968L73.3775 61.3067Z" fill="#00B14F"/>
<path d="M80.1879 62.006C80.1879 61.8572 80.1879 61.7233 80.1879 61.6191C80.1879 61.5001 80.2027 61.3959 80.2174 61.2769C80.0106 61.515 79.7595 61.7084 79.464 61.8721C79.1686 62.0358 78.8731 62.1102 78.5629 62.1102C78.0606 62.1102 77.6912 61.9763 77.4696 61.7233C77.2481 61.4555 77.1742 61.0983 77.2628 60.637C77.3515 60.1609 77.6026 59.8038 78.0162 59.5359C78.4447 59.2681 78.9765 59.1341 79.6265 59.1341H80.5868L80.6754 58.6431C80.7197 58.3604 80.6754 58.1223 80.5277 57.9586C80.3799 57.7949 80.1436 57.7056 79.8333 57.7056C79.5527 57.7056 79.3015 57.78 79.0947 57.9288C78.8879 58.0776 78.7697 58.2562 78.7401 58.4645H77.8981V58.4348C77.9424 58.0776 78.164 57.7503 78.5776 57.4527C78.9765 57.1551 79.464 57.0063 80.0254 57.0063C80.572 57.0063 81.0004 57.1551 81.2811 57.4378C81.5618 57.7205 81.6652 58.1223 81.5766 58.658L81.1629 61.0239C81.1334 61.2025 81.1186 61.3662 81.1038 61.5299C81.089 61.6935 81.1038 61.8572 81.1186 62.006H80.1879ZM78.8288 61.3513C79.1538 61.3513 79.4492 61.262 79.7447 61.0983C80.0254 60.9347 80.2322 60.7412 80.3504 60.5329L80.4834 59.7294H79.4788C79.1242 59.7294 78.814 59.8186 78.5776 59.9972C78.3265 60.1758 78.1788 60.399 78.1492 60.637C78.1049 60.8603 78.1492 61.0239 78.2674 61.1579C78.3708 61.2918 78.5629 61.3513 78.8288 61.3513ZM80.4095 56.3813H79.7004L78.7844 55.2058L78.7992 55.176H79.8333L80.4095 56.3813Z" fill="#00B14F"/>
<path d="M83.9254 57.0956L83.8663 57.8247C84.0731 57.5568 84.3095 57.3634 84.5902 57.2146C84.8561 57.0658 85.1515 56.9914 85.4618 56.9914C85.9936 56.9914 86.3629 57.1402 86.5993 57.4527C86.8356 57.7652 86.8947 58.2413 86.7765 58.8961L86.2299 62.0061H85.3436L85.8902 58.9258C85.964 58.4943 85.9345 58.1818 85.8015 58.0033C85.6686 57.8247 85.4174 57.7354 85.0777 57.7354C84.8265 57.7354 84.5902 57.7949 84.3686 57.9288C84.147 58.0479 83.9697 58.2265 83.8072 58.4348L83.1867 62.0209H82.3004L83.1572 57.0956H83.9254Z" fill="#00B14F"/>
<path d="M87.7516 59.6401C87.8846 58.8514 88.18 58.2116 88.6084 57.7205C89.0369 57.2295 89.5539 56.9914 90.1596 56.9914C90.4698 56.9914 90.7358 57.0509 90.9426 57.1848C91.1494 57.3039 91.3267 57.4973 91.4301 57.7205L91.6517 57.0807H92.3608L91.4892 62.0209C91.3858 62.6459 91.1051 63.1369 90.6914 63.4792C90.263 63.8214 89.7164 63.9851 89.0221 63.9851C88.7857 63.9851 88.5346 63.9554 88.2834 63.881C88.0175 63.8214 87.7959 63.7322 87.6039 63.6131L87.9584 62.9137C88.1062 63.003 88.2834 63.0774 88.4903 63.1369C88.7119 63.1965 88.9187 63.2262 89.1403 63.2262C89.5687 63.2262 89.9085 63.1221 90.1448 62.9286C90.3812 62.7352 90.5289 62.4227 90.6028 62.0209L90.7062 61.4704C90.5142 61.6787 90.2926 61.8275 90.0562 61.9316C89.8198 62.0358 89.5539 62.0953 89.2585 62.0953C88.6528 62.0953 88.2244 61.8721 87.9584 61.4406C87.6925 61.0091 87.6187 60.4287 87.7368 59.7294L87.7516 59.6401ZM88.6232 59.7294C88.5346 60.2204 88.5641 60.6222 88.7266 60.9198C88.8891 61.2174 89.1698 61.3662 89.5982 61.3662C89.8641 61.3662 90.1005 61.3067 90.3073 61.1876C90.5142 61.0686 90.6914 60.89 90.8392 60.6668L91.238 58.405C91.1642 58.1967 91.046 58.033 90.8835 57.914C90.721 57.7949 90.5142 57.7354 90.2483 57.7354C89.8198 57.7354 89.48 57.914 89.1994 58.2711C88.9334 58.6282 88.7414 59.0895 88.638 59.655L88.6232 59.7294Z" fill="#00B14F"/>
<path d="M97.2802 58.9109L98.6393 57.0956H99.6734L97.6643 59.521L98.8609 62.006H97.8415L97.0881 60.146L95.6847 62.006H94.6506L96.7188 59.521L95.5665 57.0956H96.5858L97.2802 58.9109Z" fill="#00B14F"/>
<path d="M99.7768 59.5062C99.9098 58.777 100.205 58.1818 100.678 57.7056C101.151 57.2295 101.727 57.0063 102.392 57.0063C103.071 57.0063 103.559 57.2444 103.869 57.7056C104.179 58.1818 104.268 58.777 104.15 59.5062L104.135 59.6103C104.002 60.3395 103.706 60.9495 103.234 61.4108C102.761 61.8721 102.185 62.1102 101.52 62.1102C100.855 62.1102 100.353 61.8721 100.043 61.4108C99.7325 60.9495 99.6439 60.3395 99.762 59.6103L99.7768 59.5062ZM100.648 59.5954C100.56 60.1163 100.589 60.5478 100.752 60.89C100.914 61.2323 101.21 61.396 101.638 61.396C102.067 61.396 102.421 61.2323 102.687 60.89C102.968 60.5478 103.145 60.1163 103.248 59.5954L103.263 59.4913C103.352 58.9705 103.322 58.5538 103.16 58.2116C102.997 57.8693 102.702 57.7056 102.273 57.7056C101.845 57.7056 101.505 57.8693 101.225 58.2116C100.944 58.5538 100.767 58.9854 100.678 59.4913L100.648 59.5954ZM103.145 55.1909H104.179V55.2206L102.761 56.3962H102.096L103.145 55.1909Z" fill="#00B14F"/>
<path d="M106.454 57.0956L106.41 57.7354C106.617 57.4973 106.838 57.3188 107.119 57.1848C107.385 57.0509 107.68 56.9914 108.005 56.9914C108.33 56.9914 108.596 57.0658 108.803 57.2146C109.01 57.3634 109.143 57.5866 109.217 57.8991C109.424 57.6164 109.66 57.3932 109.941 57.2295C110.221 57.0658 110.532 56.9914 110.871 56.9914C111.374 56.9914 111.728 57.17 111.965 57.5122C112.186 57.8545 112.245 58.3753 112.127 59.0598L111.61 62.0061H110.724L111.241 59.0598C111.329 58.5687 111.3 58.2265 111.167 58.033C111.034 57.8247 110.812 57.7354 110.472 57.7354C110.162 57.7354 109.911 57.8396 109.675 58.0479C109.453 58.2562 109.291 58.5241 109.202 58.8514V58.8812L108.655 62.0061H107.769L108.286 59.0598C108.36 58.5985 108.345 58.2562 108.212 58.0479C108.079 57.8396 107.858 57.7205 107.533 57.7205C107.267 57.7205 107.03 57.78 106.838 57.8842C106.646 58.0033 106.484 58.1521 106.351 58.3604L105.716 62.0061H104.829L105.686 57.0807H106.454V57.0956Z" fill="#00B14F"/>
</g>
<defs>
<clipPath id="clip0">
<rect width="123" height="64" fill="white"/>
</clipPath>
</defs>
</svg>
