<svg width="138" height="72" viewBox="0 0 138 72" fill="none" xmlns="http://www.w3.org/2000/svg">
<g clip-path="url(#clip0)">
<path d="M136.061 0.032959H76.8399C75.746 0.032959 74.8509 0.936935 74.8509 2.04179C74.8509 3.14665 75.746 4.05063 76.8399 4.05063H134.089V51.727H3.99456V4.05063H38.1216C39.2156 4.05063 40.1106 3.14665 40.1106 2.04179C40.1106 0.936935 39.2156 0.032959 38.1216 0.032959H2.00561C0.911691 0.032959 0.0166626 0.936935 0.0166626 2.04179V53.7358C0.0166626 54.8407 0.911691 55.7447 2.00561 55.7447H136.077C137.171 55.7447 138.066 54.8407 138.066 53.7358V2.04179C138.05 0.920195 137.171 0.032959 136.061 0.032959Z" fill="#933535"/>
<path d="M47.8011 4.05112H66.0497C67.1436 4.05112 68.0387 3.14714 68.0387 2.04228C68.0387 0.937423 67.1436 0.0334473 66.0497 0.0334473H47.8011C46.7072 0.0334473 45.8121 0.937423 45.8121 2.04228C45.8121 3.14714 46.6906 4.05112 47.8011 4.05112Z" fill="#933535"/>
<path d="M14.1879 19.6029C13.0939 19.6029 12.1989 20.5069 12.1989 21.6117V41.4323C12.1989 42.5371 13.0939 43.4411 14.1879 43.4411C15.2818 43.4411 16.1768 42.5371 16.1768 41.4323V21.6117C16.1768 20.5069 15.2818 19.6029 14.1879 19.6029Z" fill="white"/>
<path d="M14.1879 12.3376C13.0939 12.3376 12.1989 13.2416 12.1989 14.3464V14.7649C12.1989 15.8698 13.0939 16.7738 14.1879 16.7738C15.2818 16.7738 16.1768 15.8698 16.1768 14.7649V14.3464C16.1768 13.2248 15.2818 12.3376 14.1879 12.3376Z" fill="white"/>
<path d="M66.0498 12.3376H47.8011C46.7072 12.3376 45.8122 13.2416 45.8122 14.3464C45.8122 15.4513 46.7072 16.3553 47.8011 16.3553H64.0608V25.8805H47.8011C46.7072 25.8805 45.8122 26.7845 45.8122 27.8893V41.4322C45.8122 42.5371 46.7072 43.4411 47.8011 43.4411H66.0498C67.1437 43.4411 68.0387 42.5371 68.0387 41.4322V14.3464C68.0387 13.2248 67.1437 12.3376 66.0498 12.3376ZM64.0608 29.8982V39.4234H49.7901V29.8982H64.0608Z" fill="white"/>
<path d="M123.895 25.8805H114.762C113.669 25.8805 112.774 26.7845 112.774 27.8893C112.774 28.9942 113.669 29.8982 114.762 29.8982H121.906V39.4234H107.635V16.3553H123.895C124.989 16.3553 125.884 15.4513 125.884 14.3464C125.884 13.2416 124.989 12.3376 123.895 12.3376H105.63C104.536 12.3376 103.641 13.2416 103.641 14.3464V41.449C103.641 42.5538 104.536 43.4578 105.63 43.4578H123.879C124.972 43.4578 125.867 42.5538 125.867 41.449V27.9061C125.884 26.7845 124.989 25.8805 123.895 25.8805Z" fill="white"/>
<path d="M95.0885 12.3376H76.8398C75.7459 12.3376 74.8509 13.2416 74.8509 14.3464V41.449C74.8509 42.5538 75.7459 43.4578 76.8398 43.4578C77.9338 43.4578 78.8288 42.5538 78.8288 41.449V16.3553H93.0995V41.449C93.0995 42.5538 93.9945 43.4578 95.0885 43.4578C96.1824 43.4578 97.0774 42.5538 97.0774 41.449V14.3464C97.0774 13.2248 96.1824 12.3376 95.0885 12.3376Z" fill="white"/>
<path d="M38.1216 39.4234H26.6851V14.3464C26.6851 13.2416 25.7901 12.3376 24.6962 12.3376C23.6022 12.3376 22.7072 13.2416 22.7072 14.3464V41.449C22.7072 42.5538 23.6022 43.4578 24.6962 43.4578H38.1216C39.2155 43.4578 40.1105 42.5538 40.1105 41.449C40.1105 40.3441 39.2155 39.4234 38.1216 39.4234Z" fill="white"/>
<path d="M13.2265 69.7568H12.2321L13.1934 64.2158H14.1879L13.2265 69.7568ZM14.4365 62.8096H13.442L13.6243 61.7885H14.6188L14.4365 62.8096Z" fill="white"/>
<path d="M16.0773 68.97H19.558L19.4254 69.7568H14.9503L16.2431 62.3074H17.2376L16.0773 68.97Z" fill="white"/>
<path d="M23.7348 69.7568C23.7348 69.5894 23.7348 69.4387 23.7348 69.3215C23.7348 69.1876 23.7514 69.0704 23.7679 68.9365C23.5359 69.2044 23.2541 69.422 22.9226 69.6061C22.5911 69.7903 22.2596 69.874 21.9116 69.874C21.348 69.874 20.9337 69.7233 20.6851 69.4387C20.4364 69.1374 20.3536 68.7356 20.453 68.2167C20.5525 67.681 20.8342 67.2792 21.2983 66.9779C21.779 66.6766 22.3757 66.5259 23.1049 66.5259H24.1823L24.2817 65.9735C24.3315 65.6554 24.2817 65.3876 24.116 65.2034C23.9503 65.0193 23.6851 64.9188 23.337 64.9188C23.0221 64.9188 22.7403 65.0025 22.5083 65.1699C22.2762 65.3374 22.1436 65.5382 22.1105 65.7726H21.1657V65.7391C21.2154 65.3374 21.4641 64.9691 21.9282 64.6343C22.3757 64.2995 22.9226 64.1321 23.5525 64.1321C24.1657 64.1321 24.6464 64.2995 24.9613 64.6175C25.2762 64.9356 25.3922 65.3876 25.2928 65.9902L24.8287 68.6519C24.7956 68.8528 24.779 69.037 24.7624 69.2211C24.7458 69.4052 24.7624 69.5894 24.779 69.7568H23.7348ZM22.2099 69.0202C22.5746 69.0202 22.9061 68.9198 23.2375 68.7356C23.5525 68.5515 23.7845 68.3339 23.9171 68.0995L24.0663 67.1955H22.9392C22.5414 67.1955 22.1933 67.296 21.9282 67.4969C21.6464 67.6977 21.4806 67.9488 21.4475 68.2167C21.3978 68.4678 21.4475 68.6519 21.5801 68.8026C21.6961 68.9533 21.9116 69.0202 22.2099 69.0202ZM23.9668 63.429H23.1712L22.1436 62.1065L22.1602 62.073H23.3204L23.9668 63.429Z" fill="white"/>
<path d="M27.9116 64.2325L27.8454 65.0528C28.0774 64.7515 28.3426 64.5339 28.6575 64.3665C28.9558 64.1991 29.2873 64.1154 29.6354 64.1154C30.2321 64.1154 30.6465 64.2828 30.9117 64.6343C31.1768 64.9859 31.2431 65.5215 31.1105 66.2581L30.4973 69.7569H29.5028L30.1161 66.2916C30.1989 65.8061 30.1658 65.4546 30.0166 65.2537C29.8675 65.0528 29.5857 64.9524 29.2045 64.9524C28.9227 64.9524 28.6575 65.0193 28.4089 65.17C28.1603 65.3039 27.9614 65.5048 27.7791 65.7392L27.0829 69.7736H26.0884L27.0498 64.2325H27.9116Z" fill="white"/>
<path d="M32.2044 67.0951C32.3536 66.2079 32.6851 65.4881 33.1658 64.9356C33.6464 64.3832 34.2265 64.1154 34.9061 64.1154C35.2542 64.1154 35.5525 64.1823 35.7845 64.333C36.0166 64.4669 36.2155 64.6845 36.3315 64.9356L36.5801 64.2158H37.3757L36.3978 69.7736C36.2818 70.4767 35.9669 71.0291 35.5028 71.4141C35.0221 71.7992 34.4089 71.9833 33.6299 71.9833C33.3647 71.9833 33.0829 71.9498 32.8011 71.8661C32.5028 71.7992 32.2542 71.6987 32.0387 71.5648L32.4365 70.778C32.6022 70.8784 32.8011 70.9621 33.0332 71.0291C33.2818 71.0961 33.5138 71.1295 33.7625 71.1295C34.2431 71.1295 34.6243 71.0124 34.8895 70.7947C35.1547 70.5771 35.3205 70.2256 35.4033 69.7736L35.5194 69.1542C35.3039 69.3886 35.0553 69.556 34.7901 69.6731C34.5249 69.7903 34.2265 69.8573 33.895 69.8573C33.2155 69.8573 32.7348 69.6062 32.4365 69.1207C32.1381 68.6352 32.0553 67.9824 32.1879 67.1956L32.2044 67.0951ZM33.1823 67.1956C33.0829 67.748 33.116 68.2 33.2984 68.5348C33.4807 68.8696 33.7956 69.037 34.2763 69.037C34.5746 69.037 34.8398 68.9701 35.0718 68.8361C35.3039 68.7022 35.5028 68.5013 35.6685 68.2502L36.116 65.7057C36.0332 65.4713 35.9006 65.2872 35.7183 65.1533C35.5359 65.0193 35.3039 64.9524 35.0055 64.9524C34.5249 64.9524 34.1437 65.1533 33.8288 65.555C33.5304 65.9568 33.3149 66.4757 33.1989 67.1119L33.1823 67.1956Z" fill="white"/>
<path d="M42.8453 67.0114H40.3591L40.4917 66.2246H42.9779L42.8453 67.0114Z" fill="white"/>
<path d="M48.4807 66.4088H47.6188L47.0387 69.7736H46.0442L47.337 62.3242H48.3315L47.7514 65.622H48.5138L51.7293 62.3242H52.8398L52.8564 62.3576L49.3757 65.9401L51.779 69.7568L51.7624 69.7903H50.5525L48.4807 66.4088Z" fill="white"/>
<path d="M54.6298 69.874C53.8674 69.874 53.3038 69.6229 52.9392 69.1039C52.5746 68.585 52.4751 67.9321 52.6077 67.1119L52.6409 66.8942C52.7735 66.1074 53.1215 65.4546 53.6851 64.9356C54.2486 64.4167 54.8287 64.1488 55.4751 64.1488C56.221 64.1488 56.7348 64.3664 57.0331 64.8184C57.3315 65.2704 57.4144 65.8731 57.2818 66.6264L57.1657 67.2625H53.6188L53.6022 67.296C53.5193 67.8317 53.569 68.2669 53.7679 68.6017C53.9668 68.9365 54.2983 69.1207 54.7624 69.1207C55.0939 69.1207 55.4088 69.0705 55.674 68.97C55.9392 68.8696 56.1878 68.7357 56.4033 68.5683L56.6851 69.2211C56.453 69.422 56.1713 69.5727 55.8232 69.7066C55.4917 69.807 55.0939 69.874 54.6298 69.874ZM55.4254 61.8889H56.221L57.4475 63.2114L57.4309 63.2448H56.4365L55.7237 62.4413L54.7458 63.2448H53.7348V63.2114L55.4254 61.8889ZM55.3425 64.9189C55.011 64.9189 54.6961 65.0528 54.4143 65.3374C54.1326 65.622 53.9171 65.9735 53.7845 66.4088V66.4422H56.3039L56.3204 66.3083C56.3867 65.9066 56.337 65.5885 56.1713 65.3206C56.0387 65.0528 55.7569 64.9189 55.3425 64.9189ZM58.1934 61.0016H59.2541L57.9945 62.3241H57.2486L58.1934 61.0016Z" fill="white"/>
<path d="M60.3812 62.8933L60.1491 64.2325H61.1933L61.0607 64.9858H60.0165L59.4364 68.3506C59.3867 68.6017 59.4199 68.7859 59.5027 68.9031C59.5856 69.0035 59.7182 69.0537 59.9005 69.0537C59.9502 69.0537 60.0165 69.0537 60.0994 69.037C60.1657 69.0203 60.232 69.0035 60.2983 68.9868L60.3149 69.6731C60.232 69.7401 60.116 69.7903 59.9668 69.8238C59.8176 69.8573 59.6685 69.8908 59.5193 69.8908C59.1215 69.8908 58.8066 69.7736 58.6243 69.5225C58.4254 69.2714 58.3757 68.8863 58.4751 68.3674L59.0552 65.0026H58.1768L58.3094 64.2493H59.1878L59.4199 62.91H60.3812V62.8933Z" fill="white"/>
<path d="M65.884 64.2325L65.8177 65.0528C66.0497 64.7515 66.3149 64.5339 66.6298 64.3665C66.9282 64.1991 67.2597 64.1154 67.6077 64.1154C68.2044 64.1154 68.6188 64.2828 68.884 64.6343C69.1492 64.9859 69.2155 65.5215 69.0829 66.2581L68.4696 69.7569H67.4751L68.0884 66.2916C68.1713 65.8061 68.1381 65.4546 67.989 65.2537C67.8398 65.0528 67.558 64.9524 67.1768 64.9524C66.895 64.9524 66.6298 65.0193 66.3812 65.17C66.1326 65.3039 65.9337 65.5048 65.7514 65.7392L65.0553 69.7736H64.0608L65.0221 64.2325H65.884Z" fill="white"/>
<path d="M70.1768 66.9444C70.326 66.1241 70.6574 65.4545 71.1878 64.9188C71.7182 64.3832 72.3646 64.1321 73.1105 64.1321C73.8729 64.1321 74.4199 64.3999 74.7679 64.9188C75.116 65.4545 75.2154 66.1241 75.0828 66.9444L75.0663 67.0616C74.9171 67.8819 74.5856 68.5682 74.0552 69.0872C73.5248 69.6061 72.8784 69.874 72.1326 69.874C71.3701 69.874 70.8232 69.6061 70.4751 69.0872C70.1271 68.5682 70.0276 67.8819 70.1602 67.0616L70.1768 66.9444ZM71.1547 67.0449C71.0552 67.6308 71.0884 68.1162 71.2707 68.5013C71.453 68.8863 71.7845 69.0704 72.2652 69.0704C72.7458 69.0704 73.1436 68.8863 73.442 68.5013C73.7569 68.1162 73.9558 67.6308 74.0718 67.0449L74.0884 66.9277C74.1878 66.3418 74.1547 65.873 73.9723 65.488C73.79 65.103 73.4585 64.9188 72.9779 64.9188C72.4972 64.9188 72.116 65.103 71.8011 65.488C71.4862 65.873 71.2873 66.3585 71.1878 66.9277L71.1547 67.0449ZM73.0773 61.8889H73.8729L75.0994 63.2113L75.0828 63.2448H74.0884L73.3757 62.4413L72.3978 63.2448H71.3867V63.2113L73.0773 61.8889ZM75.8618 61.0184H76.9226L75.663 62.3409H74.9171L75.8618 61.0184Z" fill="white"/>
<path d="M76.8895 69.7568H75.895L76.8564 64.2158H77.8508L76.8895 69.7568ZM78.0995 62.8096H77.105L77.2873 61.7885H78.2818L78.0995 62.8096Z" fill="white"/>
<path d="M82.326 68.97H85.8066L85.674 69.7568H81.1823L82.4751 62.3074H83.4696L82.326 68.97Z" fill="white"/>
<path d="M89.9669 69.7568C89.9669 69.5894 89.9669 69.4387 89.9669 69.3215C89.9669 69.1876 89.9835 69.0704 90.0001 68.9365C89.768 69.2044 89.4863 69.422 89.1548 69.6061C88.8233 69.7903 88.4918 69.874 88.1437 69.874C87.5802 69.874 87.1658 69.7233 86.9172 69.4387C86.6686 69.1374 86.5857 68.7356 86.6851 68.2167C86.7846 67.681 87.0663 67.2792 87.5304 66.9779C88.0111 66.6766 88.6078 66.5259 89.3371 66.5259H90.4144L90.5139 65.9735C90.5636 65.6554 90.5139 65.3876 90.3481 65.2034C90.1824 65.0193 89.9172 64.9188 89.5691 64.9188C89.2542 64.9188 88.9724 65.0025 88.7404 65.1699C88.5083 65.3374 88.3757 65.5382 88.3426 65.7726H87.3978V65.7391C87.4476 65.3374 87.6962 64.9691 88.1603 64.6343C88.6078 64.2995 89.1548 64.1321 89.7846 64.1321C90.3979 64.1321 90.8785 64.2995 91.1934 64.6175C91.5084 64.9356 91.6244 65.3876 91.5249 65.9902L91.0608 68.6519C91.0277 68.8528 91.0111 69.037 90.9945 69.2211C90.978 69.4052 90.9945 69.5894 91.0111 69.7568H89.9669ZM88.442 69.0202C88.8067 69.0202 89.1382 68.9198 89.4697 68.7356C89.7846 68.5515 90.0166 68.3339 90.1492 68.0995L90.2984 67.1955H89.1713C88.7735 67.1955 88.4255 67.296 88.1603 67.4969C87.8785 67.6977 87.7128 67.9488 87.6796 68.2167C87.6299 68.4678 87.6796 68.6519 87.8122 68.8026C87.9282 68.9533 88.1437 69.0202 88.442 69.0202ZM90.2155 63.429H89.4199L88.3923 62.1065L88.4089 62.073H89.5691L90.2155 63.429Z" fill="white"/>
<path d="M94.1602 64.2325L94.0939 65.0528C94.326 64.7515 94.5912 64.5339 94.9061 64.3665C95.2044 64.1991 95.5359 64.1154 95.884 64.1154C96.4807 64.1154 96.895 64.2828 97.1602 64.6343C97.4254 64.9859 97.4917 65.5215 97.3591 66.2581L96.7459 69.7569H95.7514L96.3646 66.2916C96.4475 65.8061 96.4144 65.4546 96.2652 65.2537C96.116 65.0528 95.8343 64.9524 95.453 64.9524C95.1713 64.9524 94.9061 65.0193 94.6575 65.17C94.4088 65.3039 94.21 65.5048 94.0276 65.7392L93.3315 69.7736H92.337L93.2984 64.2325H94.1602Z" fill="white"/>
<path d="M98.4531 67.0951C98.6023 66.2079 98.9338 65.4881 99.4144 64.9356C99.8951 64.3832 100.475 64.1154 101.155 64.1154C101.503 64.1154 101.801 64.1823 102.033 64.333C102.265 64.4669 102.464 64.6845 102.58 64.9356L102.829 64.2158H103.624L102.646 69.7736C102.53 70.4767 102.216 71.0291 101.751 71.4141C101.271 71.7992 100.658 71.9833 99.8785 71.9833C99.6133 71.9833 99.3315 71.9498 99.0498 71.8661C98.7514 71.7992 98.5028 71.6987 98.2874 71.5648L98.6851 70.778C98.8509 70.8784 99.0498 70.9621 99.2818 71.0291C99.5304 71.0961 99.7625 71.1295 100.011 71.1295C100.492 71.1295 100.873 71.0124 101.138 70.7947C101.403 70.5771 101.569 70.2256 101.652 69.7736L101.768 69.1542C101.553 69.3886 101.304 69.556 101.039 69.6731C100.774 69.7903 100.475 69.8573 100.144 69.8573C99.4641 69.8573 98.9835 69.6062 98.6851 69.1207C98.3868 68.6352 98.3039 67.9824 98.4365 67.1956L98.4531 67.0951ZM99.431 67.1956C99.3316 67.748 99.3647 68.2 99.547 68.5348C99.7293 68.8696 100.044 69.037 100.525 69.037C100.823 69.037 101.088 68.9701 101.32 68.8361C101.553 68.7022 101.751 68.5013 101.917 68.2502L102.365 65.7057C102.282 65.4713 102.149 65.2872 101.967 65.1533C101.785 65.0193 101.553 64.9524 101.254 64.9524C100.774 64.9524 100.392 65.1533 100.077 65.555C99.7791 65.9568 99.5636 66.4757 99.4476 67.1119L99.431 67.1956Z" fill="white"/>
<path d="M109.144 66.2749L110.668 64.2325H111.829L109.575 66.9612L110.917 69.7568H109.773L108.928 67.6643L107.354 69.7568H106.193L108.514 66.9612L107.221 64.2325H108.365L109.144 66.2749Z" fill="white"/>
<path d="M111.945 66.9445C112.094 66.1242 112.425 65.4546 112.956 64.9189C113.486 64.3832 114.133 64.1321 114.878 64.1321C115.641 64.1321 116.188 64.3999 116.536 64.9189C116.884 65.4546 116.983 66.1242 116.851 66.9445L116.834 67.0616C116.685 67.8819 116.354 68.5683 115.823 69.0872C115.293 69.6062 114.646 69.874 113.901 69.874C113.155 69.874 112.591 69.6062 112.243 69.0872C111.895 68.5683 111.796 67.8819 111.928 67.0616L111.945 66.9445ZM112.923 67.0449C112.823 67.6308 112.856 68.1163 113.039 68.5013C113.221 68.8863 113.552 69.0705 114.033 69.0705C114.514 69.0705 114.912 68.8863 115.21 68.5013C115.525 68.1163 115.724 67.6308 115.84 67.0449L115.856 66.9277C115.956 66.3418 115.923 65.8731 115.74 65.4881C115.558 65.103 115.227 64.9189 114.746 64.9189C114.265 64.9189 113.884 65.103 113.569 65.4881C113.254 65.8731 113.055 66.3586 112.956 66.9277L112.923 67.0449ZM115.724 62.0898H116.884V62.1233L115.293 63.4457H114.547L115.724 62.0898Z" fill="white"/>
<path d="M119.436 64.2325L119.387 64.9524C119.619 64.6845 119.867 64.4836 120.182 64.333C120.481 64.1823 120.812 64.1154 121.177 64.1154C121.541 64.1154 121.84 64.1991 122.072 64.3665C122.304 64.5339 122.453 64.785 122.536 65.1365C122.768 64.8185 123.033 64.5673 123.348 64.3832C123.663 64.1991 124.011 64.1154 124.392 64.1154C124.956 64.1154 125.354 64.3162 125.619 64.7013C125.867 65.0863 125.934 65.6722 125.801 66.4423L125.221 69.7569H124.227L124.807 66.4423C124.906 65.8898 124.873 65.5048 124.724 65.2872C124.575 65.0528 124.326 64.9524 123.945 64.9524C123.597 64.9524 123.315 65.0696 123.05 65.3039C122.801 65.5383 122.619 65.8396 122.519 66.2079V66.2414L121.906 69.7569H120.912L121.492 66.4423C121.575 65.9233 121.558 65.5383 121.409 65.3039C121.26 65.0696 121.011 64.9356 120.646 64.9356C120.348 64.9356 120.083 65.0026 119.867 65.1198C119.652 65.2537 119.47 65.4211 119.32 65.6555L118.608 69.7569H117.613L118.575 64.2158H119.436V64.2325Z" fill="white"/>
</g>
<defs>
<clipPath id="clip0">
<rect width="138" height="72" fill="white"/>
</clipPath>
</defs>
</svg>
