<svg width="7" height="8" viewBox="0 0 7 8" fill="none" xmlns="http://www.w3.org/2000/svg">
<path d="M0.771654 7.8999L3.85827 4.38085C4.04724 4.1654 4.04724 3.87813 3.85827 3.7345L0.771654 0.215452C0.708661 0.071817 0.582677 0 0.456693 0C0.330709 0 0.267717 0.0718171 0.141732 0.143634C-0.0472441 0.359086 -0.0472441 0.646355 0.141732 0.78999L2.91339 3.94995L0.141732 7.10991C-0.0472441 7.32536 -0.0472441 7.61263 0.141732 7.82808C0.330709 8.04353 0.582677 8.04353 0.771654 7.8999Z" fill="#383838"/>
<path d="M3.77165 7.8999L6.85827 4.38085C7.04724 4.1654 7.04724 3.87813 6.85827 3.7345L3.77165 0.215452C3.70866 0.071817 3.58268 0 3.45669 0C3.33071 0 3.26772 0.0718171 3.14173 0.143634C2.95276 0.359086 2.95276 0.646355 3.14173 0.78999L5.91339 3.94995L3.14173 7.10991C2.95276 7.32536 2.95276 7.61263 3.14173 7.82808C3.33071 8.04353 3.58268 8.04353 3.77165 7.8999Z" fill="#383838"/>
</svg>
