<svg width="90" height="90" viewBox="0 0 90 90" fill="none" xmlns="http://www.w3.org/2000/svg">
<circle cx="45" cy="45" r="43.8" stroke="#FFA800" stroke-width="2.4"/>
<g clip-path="url(#clip0)">
<path d="M38.5754 39.7749C38.2886 39.3181 37.6861 39.1802 37.2291 39.467L33.0079 42.1166C32.551 42.4033 32.4131 43.0061 32.7 43.4629C32.8854 43.7584 33.2031 43.9204 33.528 43.9204C33.7053 43.9204 33.8848 43.8721 34.0462 43.7708L38.2675 41.1212C38.7244 40.8345 38.8622 40.2317 38.5754 39.7749Z" fill="#FFA800"/>
<path d="M31.9787 43.9173C31.6924 43.4604 31.0901 43.3218 30.6327 43.6079L30.6131 43.6202C30.1559 43.9065 30.0175 44.5091 30.3037 44.9662C30.489 45.2622 30.807 45.4246 31.1323 45.4246C31.3094 45.4246 31.4886 45.3765 31.6497 45.2756L31.6693 45.2633C32.1264 44.977 32.2649 44.3744 31.9787 43.9173Z" fill="#FFA800"/>
<path d="M69.8334 20.4316C69.5591 20.0237 69.0243 19.8833 68.585 20.104L39.6765 34.6203C39.35 34.7842 39.1424 35.1165 39.1382 35.4817C39.1339 35.8469 39.3338 36.184 39.6564 36.3553L45.351 39.382L32.3594 47.5371C32.0641 47.7224 31.8901 48.051 31.9027 48.3994C31.9152 48.7477 32.1124 49.0629 32.4202 49.2265L38.7478 52.5896L20.3432 68.2802C19.9614 68.6057 19.8883 69.1675 20.1742 69.5798C20.3626 69.8515 20.6665 70 20.9774 70C21.1383 70 21.301 69.9603 21.4506 69.8772L51.1356 53.4047C51.4486 53.231 51.6415 52.8999 51.6383 52.5419C51.635 52.184 51.4362 51.8564 51.12 51.6884L45.3362 48.6142L58.8288 39.9289C59.1213 39.7406 59.2915 39.4108 59.2757 39.0632C59.2598 38.7157 59.0603 38.4028 58.7519 38.2419L53.7572 35.6359L69.6664 21.7115C70.0363 21.3878 70.108 20.8396 69.8334 20.4316ZM51.3967 35.1066C51.1541 35.3189 51.0319 35.6374 51.0701 35.9574C51.1085 36.2775 51.3022 36.5581 51.5881 36.7072L56.3587 39.1962L42.8785 47.8735C42.5872 48.0611 42.4169 48.3891 42.4315 48.7354C42.4458 49.0817 42.6428 49.3944 42.9488 49.557L48.6159 52.5692L29.0409 63.4317L41.1075 53.1444C41.3536 52.9346 41.4799 52.6166 41.4448 52.2953C41.4098 51.9738 41.2179 51.6907 40.9323 51.5389L34.8272 48.294L47.8188 40.1387C48.1141 39.9534 48.2882 39.6248 48.2756 39.2764C48.2631 38.9281 48.0658 38.6129 47.758 38.4493L42.2419 35.5175L62.6161 25.2868L51.3967 35.1066Z" fill="#FFA800"/>
<path d="M57.039 53.9259C56.7768 53.4544 56.1818 53.285 55.7109 53.5472L55.6905 53.5585C55.2193 53.8207 55.0496 54.4153 55.3119 54.8867C55.4904 55.2077 55.8232 55.3887 56.1661 55.3887C56.3269 55.3887 56.4898 55.3489 56.64 55.2653L56.6604 55.254C57.1316 54.9918 57.3013 54.3972 57.039 53.9259Z" fill="#FFA800"/>
<path d="M54.5659 55.2988C54.304 54.8272 53.7095 54.657 53.238 54.9188L48.8802 57.3372C48.4086 57.5989 48.2385 58.1933 48.5001 58.6649C48.6786 58.9864 49.0116 59.1677 49.3549 59.1677C49.5153 59.1677 49.6779 59.1282 49.828 59.0449L54.1858 56.6265C54.6574 56.3648 54.8275 55.7704 54.5659 55.2988Z" fill="#FFA800"/>
</g>
<defs>
<clipPath id="clip0">
<rect x="20" y="20" width="50" height="50" fill="white"/>
</clipPath>
</defs>
</svg>
