<svg width="16" height="16" viewBox="0 0 16 16" fill="none" xmlns="http://www.w3.org/2000/svg">
<path d="M8.35625 0.403145C7.9875 0.0375196 7.39375 0.0406446 7.02812 0.403145C6.6625 0.76877 6.6625 1.36252 7.02812 1.73127L13.2688 7.96877C13.6344 8.33439 14.2281 8.33439 14.5938 7.96877C14.9594 7.60314 14.9594 7.00939 14.5938 6.64377L8.35625 0.403145Z" fill="#00B14F"/>
<path d="M6.51875 2.82501C6.1875 4.48126 5.38437 6.05314 4.29688 7.32501L7.69063 10.7188C8.96563 9.63126 10.5156 8.80626 12.1719 8.47501L12.4062 8.42814L6.56563 2.59064L6.51875 2.82501Z" fill="#00B14F"/>
<path d="M3.67504 8.03125L1.35316 10.35C0.806287 10.8969 0.803162 11.7875 1.35316 12.3375L2.67816 13.6625C3.22504 14.2094 4.11566 14.2125 4.66566 13.6625L6.98441 11.3437L3.67504 8.03125ZM4.00629 11.6781C3.82191 11.8625 3.52504 11.8625 3.34379 11.6781C3.15941 11.4937 3.15941 11.1969 3.34379 11.0156L4.00629 10.3531C4.19066 10.1687 4.48754 10.1687 4.66879 10.3531C4.85316 10.5375 4.85316 10.8344 4.66879 11.0156L4.00629 11.6781Z" fill="#00B14F"/>
<path d="M9.5844 11.2875L9.1094 10.8125C8.8469 10.9875 8.5969 11.1781 8.35315 11.3844L8.91877 11.95C9.10002 12.1313 9.10315 12.4281 8.91877 12.6125L8.2719 13.2594L7.31877 12.3375L5.99377 13.6625L8.1219 15.7219C8.4844 16.0844 9.08127 16.0875 9.4469 15.7219C9.81252 15.3563 9.81252 14.7625 9.4469 14.3969L8.9469 13.9125L9.5844 13.275C10.1344 12.7281 10.1313 11.8375 9.5844 11.2875Z" fill="#00B14F"/>
<path d="M10.8406 1.875C11.1 1.875 11.3094 1.66562 11.3094 1.40625V0.46875C11.3094 0.209375 11.1 0 10.8406 0C10.5813 0 10.3719 0.209375 10.3719 0.46875V1.40625C10.3719 1.66562 10.5813 1.875 10.8406 1.875Z" fill="#00B14F"/>
<path d="M14.5906 3.75H13.6531C13.3938 3.75 13.1844 3.95937 13.1844 4.21875C13.1844 4.47812 13.3938 4.6875 13.6531 4.6875H14.5906C14.85 4.6875 15.0594 4.47812 15.0594 4.21875C15.0594 3.95937 14.85 3.75 14.5906 3.75Z" fill="#00B14F"/>
<path d="M13.0469 2.67499L13.9844 1.73749C14.1687 1.55312 14.1687 1.25624 13.9844 1.07499C13.8 0.893743 13.5031 0.890618 13.3219 1.07499L12.3844 2.01249C12.2 2.19687 12.2 2.49374 12.3844 2.67499C12.5687 2.85624 12.8625 2.85937 13.0469 2.67499Z" fill="#00B14F"/>
</svg>
