<svg width="13" height="16" viewBox="0 0 13 16" fill="none" xmlns="http://www.w3.org/2000/svg">
<path d="M6.31682 16C7.23272 16 7.9821 15.2615 7.9821 14.359H4.65153C4.65153 15.2615 5.39258 16 6.31682 16ZM11.3127 11.0769V6.97436C11.3127 4.45538 9.94713 2.34667 7.56578 1.78872V1.23077C7.56578 0.549744 7.00791 0 6.31682 0C5.62572 0 5.06785 0.549744 5.06785 1.23077V1.78872C2.67817 2.34667 1.32097 4.44718 1.32097 6.97436V11.0769L0.246859 12.1354C-0.277705 12.6523 0.0886572 13.5385 0.829708 13.5385H11.7956C12.5366 13.5385 12.9113 12.6523 12.3868 12.1354L11.3127 11.0769Z" fill="white"/>
</svg>
