<svg width="16" height="16" viewBox="0 0 16 16" fill="none" xmlns="http://www.w3.org/2000/svg">
<path d="M15.3846 14.7637H5.58203L14.1668 6.14052L15.037 5.26673C16.2296 4.05822 16.2254 2.10842 15.0273 0.905337C13.8296 -0.298046 11.8885 -0.302272 10.6854 0.895679L9.81551 1.76977L1.11268 10.5116L1.10697 10.5188C1.05769 10.5713 1.01773 10.632 0.988882 10.6981C0.981671 10.7156 0.976562 10.7322 0.970553 10.7494C0.960637 10.7727 0.952224 10.7965 0.945312 10.8206L0.0129207 15.2539C0.00691106 15.2889 0.00420673 15.3242 0.00420673 15.3595C0.00420673 15.3677 0 15.3737 0 15.3819V15.3912C0.00180292 15.4627 0.0159254 15.5334 0.0417668 15.6001C0.0480769 15.6155 0.0540866 15.6297 0.0615986 15.6444C0.0898438 15.7084 0.129207 15.767 0.177284 15.8177C0.293269 15.9348 0.451022 16.0006 0.615385 16H15.3846C15.7245 16 16 15.7232 16 15.3819C16 15.0405 15.7245 14.7637 15.3846 14.7637ZM3.79087 14.0765L1.41526 14.5784L1.91767 12.1897L2.85547 13.1317L3.79087 14.0765ZM11.5556 1.76977C12.2867 1.07013 13.4357 1.07013 14.1668 1.76977C14.8879 2.49385 14.8879 3.66826 14.1668 4.39264L13.7311 4.82969L11.1205 2.20742L11.5556 1.76977ZM10.2506 3.0809L11.5556 4.39204L12.8615 5.70348L5.02825 13.5712L3.72296 12.2604L2.41797 10.9486L10.2506 3.0809Z" fill="white"/>
</svg>
