<svg width="15" height="15" viewBox="0 0 15 15" fill="none" xmlns="http://www.w3.org/2000/svg">
<g clip-path="url(#clip0)">
<path d="M7.07594 0.810683C6.68808 0.810683 6.37481 1.12395 6.37481 1.51181L6.36984 6.36995L1.50673 6.36995C1.11887 6.36995 0.805601 6.68322 0.805601 7.07108C0.805601 7.45893 1.11887 7.7722 1.50673 7.7722L6.36984 7.7722L6.36984 12.6353C6.36984 13.0232 6.68311 13.3364 7.07097 13.3364C7.45882 13.3364 7.77209 13.0232 7.77209 12.6353V7.7722H12.6352C13.0231 7.7722 13.3363 7.45893 13.3363 7.07108C13.3363 6.68322 13.0231 6.36995 12.6352 6.36995H7.77209V1.50684C7.77209 1.12892 7.45385 0.810683 7.07594 0.810683Z" fill="#A4A4A4"/>
</g>
<defs>
<clipPath id="clip0">
<rect y="7.07108" width="10" height="10" transform="rotate(-45 0 7.07108)" fill="white"/>
</clipPath>
</defs>
</svg>
