<svg width="16" height="16" viewBox="0 0 16 16" fill="none" xmlns="http://www.w3.org/2000/svg">
<path d="M9.00165 6.66636C8.72434 6.66636 8.48716 6.56784 8.29378 6.37446C8.10039 6.18107 8.00187 5.9439 8.00187 5.66659V0H2.33528C2.05797 0 1.8208 0.0985177 1.62741 0.291904C1.43403 0.485291 1.33551 0.722463 1.33551 0.999772V15.0002C1.33551 15.2775 1.43403 15.5147 1.62741 15.7081C1.8208 15.9015 2.05797 16 2.33528 16H13.6685C13.9458 16 14.1829 15.9015 14.3763 15.7081C14.5697 15.5147 14.6682 15.2775 14.6682 15.0002V6.66636H9.00165ZM5.99868 13.0007C5.99868 13.0992 5.96949 13.1795 5.90381 13.2415C5.84178 13.3035 5.76151 13.3364 5.66299 13.3364H4.99891C4.90039 13.3364 4.82012 13.3035 4.75809 13.2415C4.69606 13.1795 4.66322 13.0992 4.66322 13.0007V5.66659C4.66322 5.56807 4.69606 5.4878 4.75809 5.42577C4.82012 5.36374 4.90039 5.3309 4.99891 5.3309H5.66664C5.76516 5.3309 5.84178 5.36009 5.90746 5.42577C5.96949 5.4878 6.00233 5.56807 6.00233 5.66659V13.0007H5.99868ZM8.66596 13.1685C8.66596 13.216 8.63312 13.2561 8.57109 13.2889C8.50906 13.3218 8.42878 13.3364 8.33027 13.3364H7.66253C7.56402 13.3364 7.48374 13.3218 7.42171 13.2889C7.35968 13.2597 7.32685 13.216 7.32685 13.1685V9.50148C7.32685 9.45405 7.35603 9.41391 7.42171 9.38107C7.48374 9.34823 7.56402 9.33364 7.66253 9.33364H8.33027C8.42878 9.33364 8.50541 9.34823 8.57109 9.38107C8.63312 9.41026 8.66596 9.45405 8.66596 9.50148V13.1685ZM11.3332 13.2525C11.3332 13.278 11.3004 13.2962 11.2384 13.3108C11.1763 13.3254 11.0961 13.3327 10.9975 13.3327H10.3298C10.2313 13.3327 10.151 13.3254 10.089 13.3108C10.027 13.2962 9.99412 13.2743 9.99412 13.2525V11.4171C9.99412 11.3916 10.0233 11.3733 10.089 11.3551C10.151 11.3405 10.2313 11.3332 10.3298 11.3332H10.9975C11.0961 11.3332 11.1763 11.3405 11.2384 11.3551C11.3004 11.3697 11.3332 11.3916 11.3332 11.4171V13.2525Z" fill="#383838"/>
<path d="M13.9604 3.95896L10.7093 0.707873C10.3626 0.361237 9.9029 0.135011 9.33368 0.0328445V5.33455H14.6354C14.5333 4.76534 14.307 4.30559 13.9604 3.95896Z" fill="#383838"/>
</svg>
