<svg width="15" height="14" viewBox="0 0 15 14" fill="none" xmlns="http://www.w3.org/2000/svg">
<g clip-path="url(#clip0)">
<path d="M3.67289 4.20004C4.182 4.20004 4.61652 4.01782 4.9766 3.65322C5.3368 3.28864 5.51691 2.84864 5.51691 2.33338C5.51691 1.81817 5.3368 1.37818 4.9766 1.01355C4.61652 0.648971 4.18197 0.466644 3.67289 0.466644C3.16384 0.466644 2.72929 0.648971 2.36914 1.01355C2.00902 1.37818 1.8289 1.81807 1.8289 2.33338C1.8289 2.84875 2.00902 3.28864 2.36914 3.65322C2.72929 4.01772 3.16384 4.20004 3.67289 4.20004Z" fill="#383838"/>
<path d="M5.86623 7.11327C6.40647 7.65997 7.05827 7.93345 7.82191 7.93345C8.58558 7.93345 9.23735 7.65997 9.77757 7.11327C10.3177 6.56622 10.5879 5.90632 10.5879 5.13345C10.5879 4.36052 10.3177 3.70065 9.77757 3.15375C9.23735 2.60684 8.58558 2.33339 7.82191 2.33339C7.05827 2.33339 6.40642 2.60689 5.86623 3.15375C5.32604 3.70057 5.05586 4.36044 5.05586 5.13345C5.05586 5.90645 5.32604 6.56629 5.86623 7.11327Z" fill="#383838"/>
<path d="M11.971 4.20004C12.4799 4.20004 12.9145 4.01782 13.2746 3.65322C13.6348 3.28864 13.8148 2.84864 13.8148 2.33338C13.8148 1.81817 13.6348 1.37818 13.2746 1.01355C12.9146 0.648971 12.4799 0.466644 11.971 0.466644C11.4618 0.466644 11.0273 0.648971 10.6671 1.01355C10.3071 1.37818 10.127 1.81807 10.127 2.33338C10.127 2.84875 10.3071 3.28864 10.6671 3.65322C11.0273 4.01772 11.4618 4.20004 11.971 4.20004Z" fill="#383838"/>
<path d="M13.8436 4.20013C13.8149 4.20013 13.7105 4.25119 13.5304 4.35327C13.3504 4.4554 13.1162 4.55871 12.8281 4.66325C12.5401 4.76768 12.2543 4.81996 11.9711 4.81996C11.6492 4.81996 11.3301 4.7641 11.013 4.65224C11.0369 4.83201 11.0489 4.99248 11.0489 5.13346C11.0489 5.80916 10.8544 6.43136 10.4653 7.00012C11.2434 7.02451 11.8795 7.33556 12.3743 7.93365H13.3395C13.7332 7.93365 14.0646 7.83499 14.3335 7.63816C14.6023 7.44142 14.7368 7.15326 14.7368 6.77415C14.7369 5.05804 14.4393 4.20003 13.8436 4.20013Z" fill="#383838"/>
<path d="M12.7672 10.0954C12.7167 9.81099 12.653 9.54721 12.5762 9.30423C12.4993 9.06107 12.3961 8.82424 12.2666 8.59331C12.1369 8.36259 11.988 8.16557 11.8199 8.00266C11.6517 7.83974 11.4464 7.70987 11.2039 7.61252C10.9615 7.51531 10.6937 7.46674 10.4008 7.46674C10.3527 7.46674 10.2495 7.51901 10.091 7.62355C9.93251 7.72798 9.7574 7.84485 9.56523 7.97349C9.3731 8.10213 9.11642 8.2189 8.79447 8.32344C8.47249 8.42797 8.14839 8.48025 7.82202 8.48025C7.49553 8.48025 7.17133 8.42797 6.84958 8.32344C6.52775 8.2189 6.27092 8.10213 6.07882 7.97349C5.88667 7.84485 5.71145 7.72798 5.55301 7.62355C5.3945 7.51901 5.29131 7.46674 5.24322 7.46674C4.95033 7.46674 4.68262 7.51531 4.44009 7.61252C4.19756 7.70987 3.99229 7.83974 3.82424 8.00266C3.65604 8.1654 3.50731 8.36259 3.37755 8.59331C3.24795 8.82424 3.14471 9.06107 3.06786 9.30423C2.99104 9.54721 2.92749 9.81099 2.87698 10.0954C2.82652 10.3798 2.79294 10.6446 2.77614 10.8902C2.75931 11.1357 2.75093 11.3874 2.75093 11.645C2.75093 12.2282 2.92615 12.6889 3.27669 13.0266C3.62735 13.3644 4.09319 13.5334 4.67412 13.5334H10.9697C11.5507 13.5334 12.0165 13.3644 12.3673 13.0266C12.7178 12.6889 12.8931 12.2282 12.8931 11.645C12.8931 11.3874 12.8846 11.1358 12.868 10.8902C12.851 10.6446 12.8174 10.3798 12.7672 10.0954Z" fill="#383838"/>
<path d="M5.1783 7.00007C4.78931 6.43131 4.59487 5.80912 4.59495 5.13342C4.59495 4.99244 4.60698 4.83208 4.63095 4.6522C4.31397 4.76399 3.99464 4.81992 3.67289 4.81992C3.38956 4.81992 3.10392 4.76767 2.81575 4.66321C2.5277 4.55868 2.29352 4.45537 2.11351 4.35324C1.93342 4.25116 1.8289 4.2001 1.80011 4.2001C1.20462 4.20013 0.906891 5.05813 0.906891 6.7741C0.906891 7.15321 1.04136 7.44137 1.31023 7.6381C1.57918 7.83493 1.91054 7.93341 2.30419 7.93341H3.26947C3.76414 7.33551 4.40033 7.02444 5.1783 7.00007Z" fill="#383838"/>
</g>
<defs>
<clipPath id="clip0">
<rect x="0.906891" width="13.83" height="14" fill="white"/>
</clipPath>
</defs>
</svg>
