<svg width="16" height="16" viewBox="0 0 16 16" fill="none" xmlns="http://www.w3.org/2000/svg">
<g clip-path="url(#clip0)">
<path d="M15.1532 6.2627L13.8999 6.10339C13.7967 5.78528 13.6692 5.47864 13.5207 5.18738L14.2946 4.19067C14.6079 3.78735 14.5713 3.21802 14.2133 2.87134L13.1632 1.82129C12.8133 1.45996 12.2439 1.42395 11.84 1.73669L10.8446 2.51062C10.5532 2.36206 10.2466 2.23462 9.92788 2.13135L9.76857 0.880005C9.70864 0.378052 9.28261 0 8.77797 0H7.28456C6.77992 0 6.35389 0.378052 6.29396 0.878052L6.13465 2.13135C5.81593 2.23462 5.50929 2.36133 5.21791 2.51062L4.22193 1.73669C3.81922 1.42395 3.24988 1.45996 2.90259 1.81799L1.85254 2.86731C1.49121 3.21802 1.45459 3.78735 1.76795 4.19128L2.54187 5.18738C2.39258 5.47864 2.26587 5.78528 2.1626 6.10339L0.911257 6.2627C0.409302 6.32263 0.03125 6.74866 0.03125 7.2533V8.7467C0.03125 9.25134 0.409302 9.67737 0.909303 9.7373L2.1626 9.89661C2.26587 10.2147 2.39332 10.5214 2.54187 10.8126L1.76795 11.8093C1.45459 12.2126 1.49121 12.782 1.84925 13.1287L2.8993 14.1787C3.24988 14.5393 3.81861 14.5753 4.22254 14.2627L5.21864 13.4886C5.5099 13.6379 5.81654 13.7654 6.13465 13.868L6.29396 15.1187C6.35389 15.6219 6.77992 16 7.28456 16H8.77797C9.28261 16 9.70864 15.6219 9.76857 15.1219L9.92788 13.8687C10.246 13.7654 10.5526 13.6379 10.8439 13.4894L11.8406 14.2633C12.2439 14.5767 12.8133 14.54 13.1599 14.182L14.21 13.132C14.5713 12.7814 14.6079 12.2126 14.2946 11.8087L13.5207 10.8126C13.6699 10.5214 13.7973 10.2147 13.8999 9.89661L15.1507 9.7373C15.6526 9.67737 16.0307 9.25134 16.0307 8.7467V7.2533C16.0313 6.74866 15.6532 6.32263 15.1532 6.2627ZM8.03127 11.3334C6.19325 11.3334 4.69789 9.83801 4.69789 8C4.69789 6.16199 6.19325 4.66663 8.03127 4.66663C9.86928 4.66663 11.3646 6.16199 11.3646 8C11.3646 9.83801 9.86928 11.3334 8.03127 11.3334Z" fill="#00B14F"/>
</g>
<defs>
<clipPath id="clip0">
<rect width="16" height="16" fill="white"/>
</clipPath>
</defs>
</svg>
