<svg width="16" height="16" viewBox="0 0 16 16" fill="none" xmlns="http://www.w3.org/2000/svg">
<g clip-path="url(#clip0)">
<path d="M13.6594 2.34072C10.5386 -0.780118 5.46146 -0.780118 2.34063 2.34072C-0.780209 5.46087 -0.780209 10.5393 2.34063 13.6595C3.90072 15.2202 5.95036 15.9999 7.99999 15.9999C10.0496 15.9999 12.0986 15.2202 13.6594 13.6595C16.7802 10.5393 16.7802 5.46087 13.6594 2.34072ZM12.4735 5.80369L7.80459 10.4726C7.67452 10.6027 7.50379 10.668 7.33302 10.668C7.16228 10.668 6.99151 10.6027 6.86145 10.4726L4.19351 7.80468C3.93273 7.5439 3.93273 7.12235 4.19351 6.86157C4.4543 6.60079 4.87584 6.60079 5.13662 6.86157L7.33302 9.05797L11.5304 4.86061C11.7912 4.59983 12.2127 4.59983 12.4735 4.86061C12.7343 5.12136 12.7343 5.54291 12.4735 5.80369Z" fill="#383838"/>
</g>
<defs>
<clipPath id="clip0">
<rect width="16" height="16" fill="white"/>
</clipPath>
</defs>
</svg>
