<svg width="16" height="16" viewBox="0 0 16 16" fill="none" xmlns="http://www.w3.org/2000/svg">
<g clip-path="url(#clip0)">
<path d="M9.81787 7.65488L8.85042 8.09066C8.54547 7.67523 8.16611 7.31841 7.73311 7.03962L8.1091 6.04734C8.18102 5.85758 8.08544 5.64557 7.89576 5.57372L6.93316 5.20904C6.84207 5.17452 6.74098 5.1776 6.65216 5.21764C6.56334 5.25768 6.49407 5.33129 6.45954 5.42246L6.08355 6.41473C5.57445 6.33657 5.05403 6.35244 4.55029 6.46153L4.1145 5.49408C4.07446 5.40527 4.00085 5.33599 3.90968 5.30146C3.81858 5.26693 3.7175 5.27002 3.62868 5.31006L2.69018 5.73284C2.5052 5.81615 2.42292 6.03375 2.50615 6.21858L2.94194 7.18603C2.5265 7.49098 2.16969 7.87035 1.89089 8.30334L0.898615 7.92736C0.708931 7.85551 0.49684 7.95101 0.424993 8.14069L0.0602442 9.10322C0.0257897 9.19424 0.0288017 9.29533 0.0688395 9.38422C0.108877 9.47304 0.182488 9.54231 0.273657 9.57684L1.26586 9.95276C1.18725 10.4624 1.20349 10.9837 1.31258 11.4861L0.345211 11.9218C0.256393 11.9618 0.187117 12.0355 0.152589 12.1266C0.118134 12.2176 0.121146 12.3188 0.161184 12.4076L0.583969 13.3462C0.667277 13.5312 0.88473 13.6135 1.06971 13.5302L2.03716 13.0944C2.34211 13.5099 2.72148 13.8667 3.15447 14.1455L2.77848 15.1378C2.74403 15.2288 2.74711 15.3299 2.78708 15.4188C2.82712 15.5076 2.90073 15.5769 2.9919 15.6114L3.95442 15.9761C4.1441 16.0479 4.35619 15.9524 4.42804 15.7627L4.80403 14.7704C5.31306 14.8486 5.83363 14.8327 6.3373 14.7236L6.77308 15.6912C6.81312 15.78 6.88673 15.8493 6.9779 15.8838C7.069 15.9183 7.17008 15.9152 7.2589 15.8752L8.1974 15.4524C8.28622 15.4124 8.3555 15.3388 8.39003 15.2477C8.42455 15.1565 8.42154 15.0555 8.38143 14.9667L7.94564 13.9992C8.36115 13.6943 8.71789 13.315 8.99669 12.8819L9.98897 13.2579C10.1786 13.3297 10.3907 13.2342 10.4626 13.0446L10.8273 12.082C10.8431 12.04 10.8511 11.9959 10.8511 11.9519C10.8511 11.9004 10.8403 11.8489 10.8187 11.801C10.7786 11.7121 10.705 11.6429 10.6139 11.6083L9.62165 11.2324C9.70018 10.7228 9.68402 10.2014 9.57492 9.69908L10.5423 9.26337C10.6311 9.22333 10.7004 9.14972 10.7349 9.05855C10.7694 8.96746 10.7664 8.8663 10.7263 8.77755L10.3036 7.83905C10.2203 7.654 10.0029 7.57157 9.81787 7.65488ZM6.3262 8.2636C7.28858 8.6282 7.93514 9.56435 7.93514 10.5931C7.93514 10.894 7.88048 11.1907 7.77278 11.475C7.53711 12.0971 7.07326 12.5902 6.46667 12.8634C5.86015 13.1366 5.18347 13.1573 4.56138 12.9216C3.599 12.557 2.95245 11.6208 2.95245 10.5921C2.95245 10.2912 3.0071 9.99448 3.1148 9.71018C3.35047 9.08809 3.81432 8.595 4.42084 8.32178C5.02743 8.0485 5.70411 8.02785 6.3262 8.2636ZM11.342 0.0966887C11.2703 0.162512 11.2276 0.254268 11.2234 0.351534L11.1937 1.04342C10.8672 1.10711 10.5519 1.22216 10.2609 1.38378L9.79267 0.873569C9.65551 0.72407 9.42315 0.714153 9.27372 0.85131L8.72171 1.35792C8.64994 1.42374 8.60726 1.5155 8.60307 1.61284C8.59947 1.70996 8.63363 1.80517 8.69945 1.87694L9.16771 2.38707C8.98178 2.66322 8.84021 2.96744 8.74882 3.2873L8.05694 3.25762C7.85425 3.24895 7.68293 3.40624 7.67426 3.60893L7.64216 4.35745C7.63452 4.55911 7.79078 4.73145 7.99339 4.74012L8.68528 4.7698C8.74897 5.09628 8.86401 5.41151 9.02556 5.70257L8.51535 6.17083C8.44358 6.23666 8.4009 6.32841 8.39671 6.42568C8.39274 6.52295 8.42727 6.61801 8.49309 6.68978L8.9997 7.24179C9.13686 7.39129 9.36923 7.40121 9.51865 7.26405L10.0289 6.79579C10.305 6.98173 10.6091 7.12329 10.9291 7.21468L10.8994 7.90649C10.8913 8.1083 11.0479 8.28057 11.2506 8.28924L11.9992 8.32134C12.0965 8.32553 12.1915 8.29085 12.2633 8.22496C12.335 8.15913 12.3777 8.06738 12.3819 7.97004L12.4115 7.27823C12.7381 7.21453 13.0533 7.09949 13.3444 6.93794L13.8126 7.44808C13.8784 7.51985 13.9702 7.56253 14.0675 7.56672C14.1648 7.57091 14.2598 7.53623 14.3316 7.47034L14.8836 6.96373C14.9553 6.8979 14.998 6.80615 15.0022 6.70881C15.0061 6.61191 14.9717 6.51648 14.9058 6.44471L14.4376 5.93457C14.6235 5.65842 14.7651 5.35421 14.8565 5.03434L15.5483 5.06403C15.751 5.07269 15.9224 4.91548 15.931 4.71279L15.9631 3.96427C15.9633 3.95898 15.9634 3.95376 15.9634 3.94855C15.9634 3.85672 15.929 3.76805 15.8667 3.70017C15.8009 3.62839 15.7092 3.58571 15.6119 3.58152L14.92 3.55184C14.8563 3.22537 14.7413 2.91014 14.5797 2.61907L15.0899 2.15081C15.1617 2.08499 15.2044 1.99323 15.2086 1.89597C15.2128 1.79826 15.178 1.70356 15.1122 1.63186L14.6056 1.07986C14.4684 0.930357 14.2361 0.92044 14.0866 1.0576L13.5764 1.52586C13.3003 1.33992 12.9961 1.19835 12.6762 1.10696L12.7059 0.415154C12.7137 0.212687 12.5573 0.0411505 12.3547 0.0324082L11.6061 0.00030467C11.5088 -0.00388196 11.4138 0.0307917 11.342 0.0966887ZM13.5139 4.23425C13.4735 5.17782 12.6729 5.91261 11.7293 5.87213C10.81 5.83275 10.0898 5.08173 10.0898 4.1624C10.0898 4.13757 10.0903 4.11259 10.0914 4.08754C10.1319 3.14397 10.9325 2.40918 11.876 2.44966C12.8203 2.49014 13.5539 3.28297 13.5139 4.23425Z" fill="#00B14F"/>
</g>
<defs>
<clipPath id="clip0">
<rect y="16" width="16" height="16" transform="rotate(-90 0 16)" fill="white"/>
</clipPath>
</defs>
</svg>
