<svg width="16" height="16" viewBox="0 0 16 16" fill="none" xmlns="http://www.w3.org/2000/svg">
<path d="M8 0C3.58333 0 0 3.58 0 8C0 12.42 3.58333 16 8 16C12.4167 16 16 12.4167 16 8C16 3.58333 12.4167 0 8 0ZM6.26667 3.20667C7.22333 2.25 8.77333 2.25 9.73 3.20667C10.6867 4.16333 10.6867 5.71333 9.73 6.67C8.77333 7.62667 7.22333 7.62667 6.26667 6.67C5.31 5.71667 5.31 4.16333 6.26667 3.20667ZM11.06 12.2833H4.94C4.60333 12.2833 4.32667 12.01 4.32667 11.67C4.32667 9.98333 5.7 8.61 7.38667 8.61H8.61C10.2967 8.61 11.67 9.98333 11.67 11.67C11.6733 12.01 11.4 12.2833 11.06 12.2833Z" fill="white"/>
</svg>
