<svg width="16" height="16" viewBox="0 0 16 16" fill="none" xmlns="http://www.w3.org/2000/svg">
<path d="M11.6923 5.30768H16V3.30768C16 2.03522 14.9647 1 13.6923 1H2.30768C1.03522 1 0 2.03522 0 3.30768V11.923C0 13.1955 1.03522 14.2307 2.30768 14.2307H13.6923C14.9647 14.2307 16 13.1955 16 11.923V9.92304H11.6923C10.4198 9.92304 9.3846 8.88782 9.3846 7.61536C9.3846 6.34289 10.4198 5.30768 11.6923 5.30768Z" fill="#383838"/>
<path d="M11.6923 6.23074C10.9288 6.23074 10.3077 6.85186 10.3077 7.61536C10.3077 8.37885 10.9288 8.99997 11.6923 8.99997H16V6.23077H11.6923V6.23074ZM12.3077 8.07688H11.6923C11.4374 8.07688 11.2308 7.87023 11.2308 7.61536C11.2308 7.36048 11.4374 7.15383 11.6923 7.15383H12.3077C12.5626 7.15383 12.7692 7.36048 12.7692 7.61536C12.7692 7.87023 12.5626 8.07688 12.3077 8.07688Z" fill="#383838"/>
</svg>
