<svg width="90" height="90" viewBox="0 0 90 90" fill="none" xmlns="http://www.w3.org/2000/svg">
<circle cx="45" cy="45" r="43.8" stroke="#008DC9" stroke-width="2.4"/>
<g clip-path="url(#clip0)">
<path d="M35.4395 23.4277C34.9609 22.7148 34.5215 22.0605 34.0918 21.416C33.8965 21.1133 33.7012 20.8203 33.5059 20.5371C33.4277 20.4199 33.3008 20.293 33.1836 20.2148C33.0176 20.1074 32.832 20.0488 32.6367 20.0488C32.5586 20.0488 32.4805 20.0586 32.4023 20.0781C32.1289 20.1367 31.8945 20.3027 31.7383 20.5371C31.2207 21.377 30.6152 22.2656 29.8145 23.4277C26.7383 27.959 21.5723 35.5371 21.5723 39.7852C21.5723 42.7148 22.7246 45.4883 24.8242 47.5879C26.9434 49.6582 29.707 50.8008 32.627 50.8008C35.5566 50.8008 38.3301 49.6484 40.4297 47.5488C42.5293 45.4492 43.6816 42.6758 43.6816 39.7461C43.6816 35.5371 38.7207 28.252 35.4395 23.4277ZM38.9941 46.1035C37.3047 47.793 35.0488 48.7207 32.6367 48.7207C30.2637 48.7207 28.0078 47.793 26.2793 46.1133C24.5898 44.4238 23.6719 42.168 23.6719 39.7559C23.6523 36.2109 28.3887 29.2188 31.5137 24.5898L31.543 24.5508C31.709 24.3164 31.8652 24.082 32.0117 23.8574C32.2168 23.5547 32.4023 23.2715 32.5879 23.0078L32.627 22.9492L32.666 23.0078C32.8613 23.2715 33.0469 23.5547 33.2422 23.8574C33.3887 24.082 33.5449 24.3164 33.7109 24.5508L34.0039 24.9805C37.207 29.7656 41.6016 36.3184 41.6016 39.7363C41.6016 42.1094 40.6738 44.375 38.9941 46.1035Z" fill="#008DC9"/>
<path d="M38.9941 43.6914C39.6582 42.6465 40.0391 41.416 40.0781 40.1074C40.0977 39.834 40.0098 39.5801 39.8242 39.375C39.6387 39.1699 39.3945 39.0527 39.1211 39.0332C39.1016 39.0332 39.0723 39.0332 39.0527 39.0332C38.8086 39.0332 38.5742 39.1211 38.3887 39.2871C38.1836 39.4727 38.0664 39.7168 38.0469 39.9902C38.0078 40.8789 37.7246 41.7773 37.2461 42.5684C36.7578 43.3594 36.0645 44.0234 35.3027 44.4336C35.0684 44.5703 34.8926 44.7949 34.8145 45.0586C34.7363 45.332 34.7656 45.6055 34.9024 45.8301C35.0586 46.1035 35.3027 46.2988 35.5859 46.377C35.8496 46.4453 36.1133 46.416 36.3477 46.2793C37.4316 45.6641 38.3496 44.7754 38.9941 43.6914Z" fill="#008DC9"/>
<path d="M61.8359 30.2341C61.4453 29.658 61.084 29.1209 60.7422 28.5935C60.5762 28.3494 60.4199 28.115 60.2734 27.8806C60.1953 27.7634 60.0879 27.656 59.9707 27.5779C59.7559 27.4314 59.4922 27.3826 59.2285 27.4412C58.9746 27.4998 58.75 27.656 58.6035 27.8806C58.1836 28.5642 57.6953 29.2869 57.041 30.2244C54.5215 33.9255 50.3125 40.1072 50.3125 43.6033C50.3125 46.0251 51.2695 48.3103 52.998 50.0486C54.7461 51.7576 57.0312 52.7048 59.4434 52.7048C61.8652 52.7048 64.1504 51.7478 65.8887 50.0193C67.627 48.2908 68.5742 45.9959 68.5742 43.574C68.5742 40.1169 64.5215 34.1697 61.8359 30.2341ZM66.6016 43.5837C66.6016 45.4783 65.8594 47.2849 64.5117 48.6619C63.1641 50.0095 61.3672 50.7419 59.4336 50.7419C57.5391 50.7419 55.7324 49.9998 54.3555 48.6619C53.0078 47.3142 52.2754 45.5173 52.2754 43.5837C52.2754 40.7615 56.1133 35.0876 58.6426 31.3279L58.6621 31.2986C58.7988 31.1033 58.9258 30.9177 59.043 30.7322C59.1797 30.5271 59.3066 30.3318 59.4336 30.156C59.5605 30.3416 59.6875 30.5271 59.8242 30.7322C59.9512 30.9177 60.0781 31.113 60.2051 31.2986L60.4395 31.6501C63.0469 35.5271 66.6016 40.8298 66.6016 43.5837Z" fill="#008DC9"/>
<path d="M64.4336 42.5779C64.1797 42.5583 63.9258 42.6462 63.7305 42.822C63.5352 42.9978 63.418 43.2322 63.4082 43.4958C63.3789 44.199 63.1543 44.9021 62.7735 45.5271C62.3926 46.1521 61.8457 46.6697 61.2402 46.9919C60.7715 47.2654 60.6055 47.8708 60.8594 48.3201C61.0059 48.574 61.2305 48.7595 61.4942 48.8279C61.5723 48.8474 61.6602 48.8572 61.7481 48.8572C61.9141 48.8572 62.0703 48.8181 62.2168 48.7302C63.125 48.2224 63.8965 47.4802 64.4336 46.5818C64.9903 45.7126 65.3028 44.6873 65.332 43.6033C65.3809 43.0759 64.9805 42.6169 64.4336 42.5779Z" fill="#008DC9"/>
<path d="M47.9492 51.7287C47.627 51.2599 47.3438 50.8205 47.0605 50.4005C46.9238 50.1955 46.7969 50.0099 46.6699 49.8146C46.6016 49.7072 46.5039 49.6095 46.3965 49.5412C45.9863 49.2677 45.4102 49.3849 45.127 49.8244C44.7852 50.381 44.3848 50.9669 43.8574 51.7287C41.7969 54.7462 38.3594 59.7951 38.3594 62.6759C38.3594 64.6779 39.1504 66.5724 40.5762 67.9982C42.0215 69.4142 43.9063 70.1857 45.8984 70.1857C47.9004 70.1857 49.7949 69.3947 51.2207 67.9689C52.6562 66.5334 53.4375 64.6486 53.4375 62.6466C53.4473 59.7951 50.1367 54.9416 47.9492 51.7287ZM51.6113 62.6564C51.6113 64.1701 51.0254 65.6056 49.9512 66.7091C48.877 67.7834 47.4414 68.3693 45.8984 68.3693C44.3848 68.3693 42.9492 67.7736 41.8457 66.7091C40.7715 65.6349 40.1855 64.1994 40.1855 62.6564C40.1855 60.3908 43.291 55.7912 45.3516 52.7541L45.3711 52.7345C45.4785 52.5783 45.5859 52.422 45.6836 52.2658C45.7617 52.1486 45.8301 52.0412 45.9082 51.9337C45.9766 52.0412 46.0547 52.1486 46.1328 52.2658C46.2305 52.422 46.3379 52.5783 46.4453 52.7248L46.6406 53.008C48.6133 55.9767 51.6113 60.4494 51.6113 62.6564Z" fill="#008DC9"/>
<path d="M50.4394 61.8748C50.2832 61.699 50.0586 61.5916 49.8144 61.5721C49.3261 61.533 48.8965 61.9139 48.8574 62.4217C48.8281 62.9783 48.6621 63.5252 48.3593 64.0233C48.0566 64.5115 47.6367 64.9217 47.1484 65.1756C46.7187 65.4295 46.5527 65.9959 46.7969 66.4158C46.9336 66.6502 47.1386 66.8162 47.3828 66.8846C47.4609 66.9041 47.539 66.9139 47.6172 66.9139C47.7734 66.9139 47.9199 66.8748 48.0566 66.7967C48.8183 66.3768 49.4531 65.7518 49.9023 65.0096C50.3613 64.2869 50.625 63.4276 50.6543 62.5291C50.6836 62.285 50.6054 62.0506 50.4394 61.8748Z" fill="#008DC9"/>
</g>
<defs>
<clipPath id="clip0">
<rect x="20" y="20" width="50" height="50" fill="white"/>
</clipPath>
</defs>
</svg>
